<?xml version="1.0" encoding="utf-8"?>
<!-- Generator: Adobe Illustrator 18.0.0, SVG Export Plug-In . SVG Version: 6.00 Build 0)  -->
<!DOCTYPE svg PUBLIC "-//W3C//DTD SVG 1.1//EN" "http://www.w3.org/Graphics/SVG/1.1/DTD/svg11.dtd">
<svg version="1.1" id="Calque_1" xmlns="http://www.w3.org/2000/svg" xmlns:xlink="http://www.w3.org/1999/xlink" x="0px" y="0px"
	 viewBox="0 0 110 110" enable-background="new 0 0 110 110" xml:space="preserve">
<g id="R-Multicolor">
	<circle fill="#00AFC3" cx="55" cy="55" r="55"/>
	<g>
		<path fill="#D32F2F" d="M81,37.5H23v-5.4c0-3,2.4-5.4,5.4-5.4h47.1c3,0,5.4,2.4,5.4,5.4L81,37.5L81,37.5z"/>
		<path fill="#EF5350" d="M28.4,26.6c-3,0-5.4,2.4-5.4,5.4v5.4h13l10.9-10.9H28.4z"/>
		<path fill="#FFFFFF" d="M81,75.6c0,3-2.4,5.4-5.4,5.4H28.4c-3,0-5.4-2.4-5.4-5.4V37.5h58V75.6z"/>
		<rect x="42" y="44.8" fill="#64B5F6" width="9.1" height="8.2"/>
		<rect x="42" y="54.7" fill="#E3F2FD" width="9.1" height="8.2"/>
		<rect x="52.9" y="54.7" fill="#E3F2FD" width="9.1" height="8.2"/>
		<rect x="30.2" y="44.8" fill="#E3F2FD" width="10" height="8.2"/>
		<rect x="52.9" y="44.8" fill="#E3F2FD" width="9.1" height="8.2"/>
		<rect x="63.8" y="44.8" fill="#E3F2FD" width="9.1" height="8.2"/>
		<rect x="30.2" y="54.7" fill="#E3F2FD" width="10" height="8.2"/>
		<rect x="30.2" y="64.7" fill="#64B5F6" width="10" height="9.1"/>
		<rect x="42" y="64.7" fill="#E3F2FD" width="9.1" height="9.1"/>
		<path fill="#212121" d="M35.7,31.2c0,1.5-1.2,2.7-2.7,2.7l0,0c-1.5,0-2.7-1.2-2.7-2.7v-5.4c0-1.5,1.2-2.7,2.7-2.7l0,0
			c1.5,0,2.7,1.2,2.7,2.7V31.2z"/>
		<path fill="#212121" d="M73.8,31.2c0,1.5-1.2,2.7-2.7,2.7l0,0c-1.5,0-2.7-1.2-2.7-2.7v-5.4c0-1.5,1.2-2.7,2.7-2.7l0,0
			c1.5,0,2.7,1.2,2.7,2.7V31.2z"/>
		<path fill="#212121" d="M54.7,31.2c0,1.5-1.2,2.7-2.7,2.7l0,0c-1.5,0-2.7-1.2-2.7-2.7v-5.4c0-1.5,1.2-2.7,2.7-2.7l0,0
			c1.5,0,2.7,1.2,2.7,2.7V31.2z"/>
		<circle fill="#212121" cx="70" cy="70" r="17"/>
		<path fill="#5B5C5F" d="M70,53c-9.4,0-17,7.6-17,17c0,4.7,1.9,9,5,12.1l24-24C79,54.9,74.7,53,70,53z"/>
		<circle fill="#F0F0F0" cx="70" cy="70" r="13"/>
		<path fill="#FFFFFF" d="M70,57c-7.2,0-13,5.8-13,13c0,3.6,1.5,6.9,3.9,9.2l18.4-18.4C76.9,58.5,73.6,57,70,57z"/>
		<g>
			<path fill="#D32F2F" d="M76,76h-7c-1.1,0-2-0.9-2-2V62c0-1.1,0.9-2,2-2s2,0.9,2,2v10h5c1.1,0,2,0.9,2,2S77.1,76,76,76z"/>
		</g>
		<path fill="#EF5350" d="M69,60c-1.1,0-2,0.9-2,2v11.1l4-4V62C71,60.9,70.1,60,69,60z"/>
	</g>
</g>
<g id="Multicolor" display="none">
	<g display="inline">
		<path fill="#D32F2F" d="M81,37.5H23v-5.4c0-3,2.4-5.4,5.4-5.4h47.1c3,0,5.4,2.4,5.4,5.4L81,37.5L81,37.5z"/>
		<path fill="#EF5350" d="M28.4,26.6c-3,0-5.4,2.4-5.4,5.4v5.4h13l10.9-10.9H28.4z"/>
		<path fill="#FFFFFF" d="M81,75.6c0,3-2.4,5.4-5.4,5.4H28.4c-3,0-5.4-2.4-5.4-5.4V37.5h58V75.6z"/>
		<rect x="42" y="44.8" fill="#64B5F6" width="9.1" height="8.2"/>
		<rect x="42" y="54.7" fill="#E3F2FD" width="9.1" height="8.2"/>
		<rect x="52.9" y="54.7" fill="#E3F2FD" width="9.1" height="8.2"/>
		<rect x="30.2" y="44.8" fill="#E3F2FD" width="10" height="8.2"/>
		<rect x="52.9" y="44.8" fill="#E3F2FD" width="9.1" height="8.2"/>
		<rect x="63.8" y="44.8" fill="#E3F2FD" width="9.1" height="8.2"/>
		<rect x="30.2" y="54.7" fill="#E3F2FD" width="10" height="8.2"/>
		<rect x="30.2" y="64.7" fill="#64B5F6" width="10" height="9.1"/>
		<rect x="42" y="64.7" fill="#E3F2FD" width="9.1" height="9.1"/>
		<path fill="#212121" d="M35.7,31.2c0,1.5-1.2,2.7-2.7,2.7l0,0c-1.5,0-2.7-1.2-2.7-2.7v-5.4c0-1.5,1.2-2.7,2.7-2.7l0,0
			c1.5,0,2.7,1.2,2.7,2.7V31.2z"/>
		<path fill="#212121" d="M73.8,31.2c0,1.5-1.2,2.7-2.7,2.7l0,0c-1.5,0-2.7-1.2-2.7-2.7v-5.4c0-1.5,1.2-2.7,2.7-2.7l0,0
			c1.5,0,2.7,1.2,2.7,2.7V31.2z"/>
		<path fill="#212121" d="M54.7,31.2c0,1.5-1.2,2.7-2.7,2.7l0,0c-1.5,0-2.7-1.2-2.7-2.7v-5.4c0-1.5,1.2-2.7,2.7-2.7l0,0
			c1.5,0,2.7,1.2,2.7,2.7V31.2z"/>
		<circle fill="#212121" cx="70" cy="70" r="17"/>
		<path fill="#5B5C5F" d="M70,53c-9.4,0-17,7.6-17,17c0,4.7,1.9,9,5,12.1l24-24C79,54.9,74.7,53,70,53z"/>
		<circle fill="#F0F0F0" cx="70" cy="70" r="13"/>
		<path fill="#FFFFFF" d="M70,57c-7.2,0-13,5.8-13,13c0,3.6,1.5,6.9,3.9,9.2l18.4-18.4C76.9,58.5,73.6,57,70,57z"/>
		<g>
			<path fill="#D32F2F" d="M76,76h-7c-1.1,0-2-0.9-2-2V62c0-1.1,0.9-2,2-2s2,0.9,2,2v10h5c1.1,0,2,0.9,2,2S77.1,76,76,76z"/>
		</g>
		<path fill="#EF5350" d="M69,60c-1.1,0-2,0.9-2,2v11.1l4-4V62C71,60.9,70.1,60,69,60z"/>
	</g>
</g>
<g id="Blue" display="none">
	<g display="inline">
		<g>
			<path fill="#2962FF" d="M81,37.5H23v-5.4c0-3,2.4-5.4,5.4-5.4h47.1c3,0,5.4,2.4,5.4,5.4L81,37.5L81,37.5z"/>
		</g>
		<g>
			<path fill="#2979FF" d="M28.4,26.6c-3,0-5.4,2.4-5.4,5.4v5.4h13l10.9-10.9H28.4z"/>
		</g>
		<g>
			<path fill="#FFFFFF" d="M81,75.6c0,3-2.4,5.4-5.4,5.4H28.4c-3,0-5.4-2.4-5.4-5.4V37.5h58V75.6z"/>
		</g>
		<g>
			<rect x="42" y="44.8" fill="#448AFF" width="9.1" height="8.2"/>
		</g>
		<g>
			<rect x="42" y="54.7" fill="#C5CAE9" width="9.1" height="8.2"/>
		</g>
		<g>
			<rect x="52.9" y="54.7" fill="#C5CAE9" width="9.1" height="8.2"/>
		</g>
		<g>
			<rect x="30.2" y="44.8" fill="#C5CAE9" width="10" height="8.2"/>
		</g>
		<g>
			<rect x="52.9" y="44.8" fill="#C5CAE9" width="9.1" height="8.2"/>
		</g>
		<g>
			<rect x="63.8" y="44.8" fill="#C5CAE9" width="9.1" height="8.2"/>
		</g>
		<g>
			<rect x="30.2" y="54.7" fill="#C5CAE9" width="10" height="8.2"/>
		</g>
		<g>
			<rect x="30.2" y="64.7" fill="#448AFF" width="10" height="9.1"/>
		</g>
		<g>
			<rect x="42" y="64.7" fill="#C5CAE9" width="9.1" height="9.1"/>
		</g>
		<g>
			<path fill="#1A3B7E" d="M35.7,31.2c0,1.5-1.2,2.7-2.7,2.7l0,0c-1.5,0-2.7-1.2-2.7-2.7v-5.4c0-1.5,1.2-2.7,2.7-2.7l0,0
				c1.5,0,2.7,1.2,2.7,2.7V31.2z"/>
		</g>
		<g>
			<path fill="#1A3B7E" d="M73.8,31.2c0,1.5-1.2,2.7-2.7,2.7l0,0c-1.5,0-2.7-1.2-2.7-2.7v-5.4c0-1.5,1.2-2.7,2.7-2.7l0,0
				c1.5,0,2.7,1.2,2.7,2.7V31.2z"/>
		</g>
		<g>
			<path fill="#1A3B7E" d="M54.7,31.2c0,1.5-1.2,2.7-2.7,2.7l0,0c-1.5,0-2.7-1.2-2.7-2.7v-5.4c0-1.5,1.2-2.7,2.7-2.7l0,0
				c1.5,0,2.7,1.2,2.7,2.7V31.2z"/>
		</g>
		<g>
			<circle fill="#1A3B7E" cx="70" cy="70" r="17"/>
		</g>
		<g>
			<path fill="#0D57A1" d="M70,53c-9.4,0-17,7.6-17,17c0,4.7,1.9,9,5,12.1l24-24C79,54.9,74.7,53,70,53z"/>
		</g>
		<g>
			<circle fill="#E8EAF6" cx="70" cy="70" r="13"/>
		</g>
		<g>
			<path fill="#FFFFFF" d="M70,57c-7.2,0-13,5.8-13,13c0,3.6,1.5,6.9,3.9,9.2l18.4-18.4C76.9,58.5,73.6,57,70,57z"/>
		</g>
		<g>
			<g>
				<path fill="#2979FF" d="M76,76h-7c-1.1,0-2-0.9-2-2V62c0-1.1,0.9-2,2-2s2,0.9,2,2v10h5c1.1,0,2,0.9,2,2S77.1,76,76,76z"/>
			</g>
		</g>
		<g>
			<path fill="#448AFF" d="M69,60c-1.1,0-2,0.9-2,2v11.1l4-4V62C71,60.9,70.1,60,69,60z"/>
		</g>
	</g>
</g>
<g id="R-Blue" display="none">
	<g display="inline">
		<circle fill="#00B0FF" cx="55" cy="55" r="55"/>
	</g>
	<g display="inline">
		<g>
			<path fill="#2962FF" d="M81,37.5H23v-5.4c0-3,2.4-5.4,5.4-5.4h47.1c3,0,5.4,2.4,5.4,5.4L81,37.5L81,37.5z"/>
		</g>
		<g>
			<path fill="#2979FF" d="M28.4,26.6c-3,0-5.4,2.4-5.4,5.4v5.4h13l10.9-10.9H28.4z"/>
		</g>
		<g>
			<path fill="#FFFFFF" d="M81,75.6c0,3-2.4,5.4-5.4,5.4H28.4c-3,0-5.4-2.4-5.4-5.4V37.5h58V75.6z"/>
		</g>
		<g>
			<rect x="42" y="44.8" fill="#448AFF" width="9.1" height="8.2"/>
		</g>
		<g>
			<rect x="42" y="54.7" fill="#C5CAE9" width="9.1" height="8.2"/>
		</g>
		<g>
			<rect x="52.9" y="54.7" fill="#C5CAE9" width="9.1" height="8.2"/>
		</g>
		<g>
			<rect x="30.2" y="44.8" fill="#C5CAE9" width="10" height="8.2"/>
		</g>
		<g>
			<rect x="52.9" y="44.8" fill="#C5CAE9" width="9.1" height="8.2"/>
		</g>
		<g>
			<rect x="63.8" y="44.8" fill="#C5CAE9" width="9.1" height="8.2"/>
		</g>
		<g>
			<rect x="30.2" y="54.7" fill="#C5CAE9" width="10" height="8.2"/>
		</g>
		<g>
			<rect x="30.2" y="64.7" fill="#448AFF" width="10" height="9.1"/>
		</g>
		<g>
			<rect x="42" y="64.7" fill="#C5CAE9" width="9.1" height="9.1"/>
		</g>
		<g>
			<path fill="#1A3B7E" d="M35.7,31.2c0,1.5-1.2,2.7-2.7,2.7l0,0c-1.5,0-2.7-1.2-2.7-2.7v-5.4c0-1.5,1.2-2.7,2.7-2.7l0,0
				c1.5,0,2.7,1.2,2.7,2.7V31.2z"/>
		</g>
		<g>
			<path fill="#1A3B7E" d="M73.8,31.2c0,1.5-1.2,2.7-2.7,2.7l0,0c-1.5,0-2.7-1.2-2.7-2.7v-5.4c0-1.5,1.2-2.7,2.7-2.7l0,0
				c1.5,0,2.7,1.2,2.7,2.7V31.2z"/>
		</g>
		<g>
			<path fill="#1A3B7E" d="M54.7,31.2c0,1.5-1.2,2.7-2.7,2.7l0,0c-1.5,0-2.7-1.2-2.7-2.7v-5.4c0-1.5,1.2-2.7,2.7-2.7l0,0
				c1.5,0,2.7,1.2,2.7,2.7V31.2z"/>
		</g>
		<g>
			<circle fill="#1A3B7E" cx="70" cy="70" r="17"/>
		</g>
		<g>
			<path fill="#0D57A1" d="M70,53c-9.4,0-17,7.6-17,17c0,4.7,1.9,9,5,12.1l24-24C79,54.9,74.7,53,70,53z"/>
		</g>
		<g>
			<circle fill="#E8EAF6" cx="70" cy="70" r="13"/>
		</g>
		<g>
			<path fill="#FFFFFF" d="M70,57c-7.2,0-13,5.8-13,13c0,3.6,1.5,6.9,3.9,9.2l18.4-18.4C76.9,58.5,73.6,57,70,57z"/>
		</g>
		<g>
			<g>
				<path fill="#2979FF" d="M76,76h-7c-1.1,0-2-0.9-2-2V62c0-1.1,0.9-2,2-2s2,0.9,2,2v10h5c1.1,0,2,0.9,2,2S77.1,76,76,76z"/>
			</g>
		</g>
		<g>
			<path fill="#448AFF" d="M69,60c-1.1,0-2,0.9-2,2v11.1l4-4V62C71,60.9,70.1,60,69,60z"/>
		</g>
	</g>
</g>
<g id="Green" display="none">
	<g display="inline">
		<g>
			<path fill="#00A344" d="M81,37.5H23v-5.4c0-3,2.4-5.4,5.4-5.4h47.1c3,0,5.4,2.4,5.4,5.4L81,37.5L81,37.5z"/>
		</g>
		<g>
			<path fill="#00C250" d="M28.4,26.6c-3,0-5.4,2.4-5.4,5.4v5.4h13l10.9-10.9H28.4z"/>
		</g>
		<g>
			<path fill="#FFFFFF" d="M81,75.6c0,3-2.4,5.4-5.4,5.4H28.4c-3,0-5.4-2.4-5.4-5.4V37.5h58V75.6z"/>
		</g>
		<g>
			<rect x="42" y="44.8" fill="#00E676" width="9.1" height="8.2"/>
		</g>
		<g>
			<rect x="42" y="54.7" fill="#C5EB98" width="9.1" height="8.2"/>
		</g>
		<g>
			<rect x="52.9" y="54.7" fill="#C5EB98" width="9.1" height="8.2"/>
		</g>
		<g>
			<rect x="30.2" y="44.8" fill="#C5EB98" width="10" height="8.2"/>
		</g>
		<g>
			<rect x="52.9" y="44.8" fill="#C5EB98" width="9.1" height="8.2"/>
		</g>
		<g>
			<rect x="63.8" y="44.8" fill="#C5EB98" width="9.1" height="8.2"/>
		</g>
		<g>
			<rect x="30.2" y="54.7" fill="#C5EB98" width="10" height="8.2"/>
		</g>
		<g>
			<rect x="30.2" y="64.7" fill="#00E676" width="10" height="9.1"/>
		</g>
		<g>
			<rect x="42" y="64.7" fill="#C5EB98" width="9.1" height="9.1"/>
		</g>
		<g>
			<path fill="#003B15" d="M35.7,31.2c0,1.5-1.2,2.7-2.7,2.7l0,0c-1.5,0-2.7-1.2-2.7-2.7v-5.4c0-1.5,1.2-2.7,2.7-2.7l0,0
				c1.5,0,2.7,1.2,2.7,2.7V31.2z"/>
		</g>
		<g>
			<path fill="#003B15" d="M73.8,31.2c0,1.5-1.2,2.7-2.7,2.7l0,0c-1.5,0-2.7-1.2-2.7-2.7v-5.4c0-1.5,1.2-2.7,2.7-2.7l0,0
				c1.5,0,2.7,1.2,2.7,2.7V31.2z"/>
		</g>
		<g>
			<path fill="#003B15" d="M54.7,31.2c0,1.5-1.2,2.7-2.7,2.7l0,0c-1.5,0-2.7-1.2-2.7-2.7v-5.4c0-1.5,1.2-2.7,2.7-2.7l0,0
				c1.5,0,2.7,1.2,2.7,2.7V31.2z"/>
		</g>
		<g>
			<circle fill="#003B15" cx="70" cy="70" r="17"/>
		</g>
		<g>
			<path fill="#006E31" d="M70,53c-9.4,0-17,7.6-17,17c0,4.7,1.9,9,5,12.1l24-24C79,54.9,74.7,53,70,53z"/>
		</g>
		<g>
			<circle fill="#ECF5E1" cx="70" cy="70" r="13"/>
		</g>
		<g>
			<path fill="#FFFFFF" d="M70,57c-7.2,0-13,5.8-13,13c0,3.6,1.5,6.9,3.9,9.2l18.4-18.4C76.9,58.5,73.6,57,70,57z"/>
		</g>
		<g>
			<g>
				<path fill="#00C250" d="M76,76h-7c-1.1,0-2-0.9-2-2V62c0-1.1,0.9-2,2-2s2,0.9,2,2v10h5c1.1,0,2,0.9,2,2S77.1,76,76,76z"/>
			</g>
		</g>
		<g>
			<path fill="#00E676" d="M69,60c-1.1,0-2,0.9-2,2v11.1l4-4V62C71,60.9,70.1,60,69,60z"/>
		</g>
	</g>
</g>
<g id="R-Green" display="none">
	<g display="inline">
		<circle fill="#64DD17" cx="55" cy="55" r="55"/>
	</g>
	<g display="inline">
		<g>
			<path fill="#00A344" d="M81,37.5H23v-5.4c0-3,2.4-5.4,5.4-5.4h47.1c3,0,5.4,2.4,5.4,5.4L81,37.5L81,37.5z"/>
		</g>
		<g>
			<path fill="#00C250" d="M28.4,26.6c-3,0-5.4,2.4-5.4,5.4v5.4h13l10.9-10.9H28.4z"/>
		</g>
		<g>
			<path fill="#FFFFFF" d="M81,75.6c0,3-2.4,5.4-5.4,5.4H28.4c-3,0-5.4-2.4-5.4-5.4V37.5h58V75.6z"/>
		</g>
		<g>
			<rect x="42" y="44.8" fill="#00E676" width="9.1" height="8.2"/>
		</g>
		<g>
			<rect x="42" y="54.7" fill="#C5EB98" width="9.1" height="8.2"/>
		</g>
		<g>
			<rect x="52.9" y="54.7" fill="#C5EB98" width="9.1" height="8.2"/>
		</g>
		<g>
			<rect x="30.2" y="44.8" fill="#C5EB98" width="10" height="8.2"/>
		</g>
		<g>
			<rect x="52.9" y="44.8" fill="#C5EB98" width="9.1" height="8.2"/>
		</g>
		<g>
			<rect x="63.8" y="44.8" fill="#C5EB98" width="9.1" height="8.2"/>
		</g>
		<g>
			<rect x="30.2" y="54.7" fill="#C5EB98" width="10" height="8.2"/>
		</g>
		<g>
			<rect x="30.2" y="64.7" fill="#00E676" width="10" height="9.1"/>
		</g>
		<g>
			<rect x="42" y="64.7" fill="#C5EB98" width="9.1" height="9.1"/>
		</g>
		<g>
			<path fill="#003B15" d="M35.7,31.2c0,1.5-1.2,2.7-2.7,2.7l0,0c-1.5,0-2.7-1.2-2.7-2.7v-5.4c0-1.5,1.2-2.7,2.7-2.7l0,0
				c1.5,0,2.7,1.2,2.7,2.7V31.2z"/>
		</g>
		<g>
			<path fill="#003B15" d="M73.8,31.2c0,1.5-1.2,2.7-2.7,2.7l0,0c-1.5,0-2.7-1.2-2.7-2.7v-5.4c0-1.5,1.2-2.7,2.7-2.7l0,0
				c1.5,0,2.7,1.2,2.7,2.7V31.2z"/>
		</g>
		<g>
			<path fill="#003B15" d="M54.7,31.2c0,1.5-1.2,2.7-2.7,2.7l0,0c-1.5,0-2.7-1.2-2.7-2.7v-5.4c0-1.5,1.2-2.7,2.7-2.7l0,0
				c1.5,0,2.7,1.2,2.7,2.7V31.2z"/>
		</g>
		<g>
			<circle fill="#003B15" cx="70" cy="70" r="17"/>
		</g>
		<g>
			<path fill="#006E31" d="M70,53c-9.4,0-17,7.6-17,17c0,4.7,1.9,9,5,12.1l24-24C79,54.9,74.7,53,70,53z"/>
		</g>
		<g>
			<circle fill="#ECF5E1" cx="70" cy="70" r="13"/>
		</g>
		<g>
			<path fill="#FFFFFF" d="M70,57c-7.2,0-13,5.8-13,13c0,3.6,1.5,6.9,3.9,9.2l18.4-18.4C76.9,58.5,73.6,57,70,57z"/>
		</g>
		<g>
			<g>
				<path fill="#00C250" d="M76,76h-7c-1.1,0-2-0.9-2-2V62c0-1.1,0.9-2,2-2s2,0.9,2,2v10h5c1.1,0,2,0.9,2,2S77.1,76,76,76z"/>
			</g>
		</g>
		<g>
			<path fill="#00E676" d="M69,60c-1.1,0-2,0.9-2,2v11.1l4-4V62C71,60.9,70.1,60,69,60z"/>
		</g>
	</g>
</g>
<g id="Red" display="none">
	<g display="inline">
		<g>
			<path fill="#AC2200" d="M81,37.5H23v-5.4c0-3,2.4-5.4,5.4-5.4h47.1c3,0,5.4,2.4,5.4,5.4L81,37.5L81,37.5z"/>
		</g>
		<g>
			<path fill="#D22600" d="M28.4,26.6c-3,0-5.4,2.4-5.4,5.4v5.4h13l10.9-10.9H28.4z"/>
		</g>
		<g>
			<path fill="#FFFFFF" d="M81,75.6c0,3-2.4,5.4-5.4,5.4H28.4c-3,0-5.4-2.4-5.4-5.4V37.5h58V75.6z"/>
		</g>
		<g>
			<rect x="42" y="44.8" fill="#FF2F00" width="9.1" height="8.2"/>
		</g>
		<g>
			<rect x="42" y="54.7" fill="#FFC7B2" width="9.1" height="8.2"/>
		</g>
		<g>
			<rect x="52.9" y="54.7" fill="#FFC7B2" width="9.1" height="8.2"/>
		</g>
		<g>
			<rect x="30.2" y="44.8" fill="#FFC7B2" width="10" height="8.2"/>
		</g>
		<g>
			<rect x="52.9" y="44.8" fill="#FFC7B2" width="9.1" height="8.2"/>
		</g>
		<g>
			<rect x="63.8" y="44.8" fill="#FFC7B2" width="9.1" height="8.2"/>
		</g>
		<g>
			<rect x="30.2" y="54.7" fill="#FFC7B2" width="10" height="8.2"/>
		</g>
		<g>
			<rect x="30.2" y="64.7" fill="#FF2F00" width="10" height="9.1"/>
		</g>
		<g>
			<rect x="42" y="64.7" fill="#FFC7B2" width="9.1" height="9.1"/>
		</g>
		<g>
			<path fill="#2C0900" d="M35.7,31.2c0,1.5-1.2,2.7-2.7,2.7l0,0c-1.5,0-2.7-1.2-2.7-2.7v-5.4c0-1.5,1.2-2.7,2.7-2.7l0,0
				c1.5,0,2.7,1.2,2.7,2.7V31.2z"/>
		</g>
		<g>
			<path fill="#2C0900" d="M73.8,31.2c0,1.5-1.2,2.7-2.7,2.7l0,0c-1.5,0-2.7-1.2-2.7-2.7v-5.4c0-1.5,1.2-2.7,2.7-2.7l0,0
				c1.5,0,2.7,1.2,2.7,2.7V31.2z"/>
		</g>
		<g>
			<path fill="#2C0900" d="M54.7,31.2c0,1.5-1.2,2.7-2.7,2.7l0,0c-1.5,0-2.7-1.2-2.7-2.7v-5.4c0-1.5,1.2-2.7,2.7-2.7l0,0
				c1.5,0,2.7,1.2,2.7,2.7V31.2z"/>
		</g>
		<g>
			<circle fill="#2C0900" cx="70" cy="70" r="17"/>
		</g>
		<g>
			<path fill="#7A1C05" d="M70,53c-9.4,0-17,7.6-17,17c0,4.7,1.9,9,5,12.1l24-24C79,54.9,74.7,53,70,53z"/>
		</g>
		<g>
			<circle fill="#FFE4DE" cx="70" cy="70" r="13"/>
		</g>
		<g>
			<path fill="#FFFFFF" d="M70,57c-7.2,0-13,5.8-13,13c0,3.6,1.5,6.9,3.9,9.2l18.4-18.4C76.9,58.5,73.6,57,70,57z"/>
		</g>
		<g>
			<g>
				<path fill="#D22600" d="M76,76h-7c-1.1,0-2-0.9-2-2V62c0-1.1,0.9-2,2-2s2,0.9,2,2v10h5c1.1,0,2,0.9,2,2S77.1,76,76,76z"/>
			</g>
		</g>
		<g>
			<path fill="#FF2F00" d="M69,60c-1.1,0-2,0.9-2,2v11.1l4-4V62C71,60.9,70.1,60,69,60z"/>
		</g>
	</g>
</g>
<g id="R-Red" display="none">
	<g display="inline">
		<circle fill="#FF5722" cx="55" cy="55" r="55"/>
	</g>
	<g display="inline">
		<g>
			<path fill="#AC2200" d="M81,37.5H23v-5.4c0-3,2.4-5.4,5.4-5.4h47.1c3,0,5.4,2.4,5.4,5.4L81,37.5L81,37.5z"/>
		</g>
		<g>
			<path fill="#D22600" d="M28.4,26.6c-3,0-5.4,2.4-5.4,5.4v5.4h13l10.9-10.9H28.4z"/>
		</g>
		<g>
			<path fill="#FFFFFF" d="M81,75.6c0,3-2.4,5.4-5.4,5.4H28.4c-3,0-5.4-2.4-5.4-5.4V37.5h58V75.6z"/>
		</g>
		<g>
			<rect x="42" y="44.8" fill="#FF2F00" width="9.1" height="8.2"/>
		</g>
		<g>
			<rect x="42" y="54.7" fill="#FFC7B2" width="9.1" height="8.2"/>
		</g>
		<g>
			<rect x="52.9" y="54.7" fill="#FFC7B2" width="9.1" height="8.2"/>
		</g>
		<g>
			<rect x="30.2" y="44.8" fill="#FFC7B2" width="10" height="8.2"/>
		</g>
		<g>
			<rect x="52.9" y="44.8" fill="#FFC7B2" width="9.1" height="8.2"/>
		</g>
		<g>
			<rect x="63.8" y="44.8" fill="#FFC7B2" width="9.1" height="8.2"/>
		</g>
		<g>
			<rect x="30.2" y="54.7" fill="#FFC7B2" width="10" height="8.2"/>
		</g>
		<g>
			<rect x="30.2" y="64.7" fill="#FF2F00" width="10" height="9.1"/>
		</g>
		<g>
			<rect x="42" y="64.7" fill="#FFC7B2" width="9.1" height="9.1"/>
		</g>
		<g>
			<path fill="#2C0900" d="M35.7,31.2c0,1.5-1.2,2.7-2.7,2.7l0,0c-1.5,0-2.7-1.2-2.7-2.7v-5.4c0-1.5,1.2-2.7,2.7-2.7l0,0
				c1.5,0,2.7,1.2,2.7,2.7V31.2z"/>
		</g>
		<g>
			<path fill="#2C0900" d="M73.8,31.2c0,1.5-1.2,2.7-2.7,2.7l0,0c-1.5,0-2.7-1.2-2.7-2.7v-5.4c0-1.5,1.2-2.7,2.7-2.7l0,0
				c1.5,0,2.7,1.2,2.7,2.7V31.2z"/>
		</g>
		<g>
			<path fill="#2C0900" d="M54.7,31.2c0,1.5-1.2,2.7-2.7,2.7l0,0c-1.5,0-2.7-1.2-2.7-2.7v-5.4c0-1.5,1.2-2.7,2.7-2.7l0,0
				c1.5,0,2.7,1.2,2.7,2.7V31.2z"/>
		</g>
		<g>
			<circle fill="#2C0900" cx="70" cy="70" r="17"/>
		</g>
		<g>
			<path fill="#7A1C05" d="M70,53c-9.4,0-17,7.6-17,17c0,4.7,1.9,9,5,12.1l24-24C79,54.9,74.7,53,70,53z"/>
		</g>
		<g>
			<circle fill="#FFE4DE" cx="70" cy="70" r="13"/>
		</g>
		<g>
			<path fill="#FFFFFF" d="M70,57c-7.2,0-13,5.8-13,13c0,3.6,1.5,6.9,3.9,9.2l18.4-18.4C76.9,58.5,73.6,57,70,57z"/>
		</g>
		<g>
			<g>
				<path fill="#D22600" d="M76,76h-7c-1.1,0-2-0.9-2-2V62c0-1.1,0.9-2,2-2s2,0.9,2,2v10h5c1.1,0,2,0.9,2,2S77.1,76,76,76z"/>
			</g>
		</g>
		<g>
			<path fill="#FF2F00" d="M69,60c-1.1,0-2,0.9-2,2v11.1l4-4V62C71,60.9,70.1,60,69,60z"/>
		</g>
	</g>
</g>
<g id="Yellow" display="none">
	<g display="inline">
		<g>
			<path fill="#FC6100" d="M81,37.5H23v-5.4c0-3,2.4-5.4,5.4-5.4h47.1c3,0,5.4,2.4,5.4,5.4L81,37.5L81,37.5z"/>
		</g>
		<g>
			<path fill="#FF8000" d="M28.4,26.6c-3,0-5.4,2.4-5.4,5.4v5.4h13l10.9-10.9H28.4z"/>
		</g>
		<g>
			<path fill="#FFFFFF" d="M81,75.6c0,3-2.4,5.4-5.4,5.4H28.4c-3,0-5.4-2.4-5.4-5.4V37.5h58V75.6z"/>
		</g>
		<g>
			<rect x="42" y="44.8" fill="#FFAA00" width="9.1" height="8.2"/>
		</g>
		<g>
			<rect x="42" y="54.7" fill="#FFEBB8" width="9.1" height="8.2"/>
		</g>
		<g>
			<rect x="52.9" y="54.7" fill="#FFEBB8" width="9.1" height="8.2"/>
		</g>
		<g>
			<rect x="30.2" y="44.8" fill="#FFEBB8" width="10" height="8.2"/>
		</g>
		<g>
			<rect x="52.9" y="44.8" fill="#FFEBB8" width="9.1" height="8.2"/>
		</g>
		<g>
			<rect x="63.8" y="44.8" fill="#FFEBB8" width="9.1" height="8.2"/>
		</g>
		<g>
			<rect x="30.2" y="54.7" fill="#FFEBB8" width="10" height="8.2"/>
		</g>
		<g>
			<rect x="30.2" y="64.7" fill="#FFAA00" width="10" height="9.1"/>
		</g>
		<g>
			<rect x="42" y="64.7" fill="#FFEBB8" width="9.1" height="9.1"/>
		</g>
		<g>
			<path fill="#4C2720" d="M35.7,31.2c0,1.5-1.2,2.7-2.7,2.7l0,0c-1.5,0-2.7-1.2-2.7-2.7v-5.4c0-1.5,1.2-2.7,2.7-2.7l0,0
				c1.5,0,2.7,1.2,2.7,2.7V31.2z"/>
		</g>
		<g>
			<path fill="#4C2720" d="M73.8,31.2c0,1.5-1.2,2.7-2.7,2.7l0,0c-1.5,0-2.7-1.2-2.7-2.7v-5.4c0-1.5,1.2-2.7,2.7-2.7l0,0
				c1.5,0,2.7,1.2,2.7,2.7V31.2z"/>
		</g>
		<g>
			<path fill="#4C2720" d="M54.7,31.2c0,1.5-1.2,2.7-2.7,2.7l0,0c-1.5,0-2.7-1.2-2.7-2.7v-5.4c0-1.5,1.2-2.7,2.7-2.7l0,0
				c1.5,0,2.7,1.2,2.7,2.7V31.2z"/>
		</g>
		<g>
			<circle fill="#4C2720" cx="70" cy="70" r="17"/>
		</g>
		<g>
			<path fill="#804B1C" d="M70,53c-9.4,0-17,7.6-17,17c0,4.7,1.9,9,5,12.1l24-24C79,54.9,74.7,53,70,53z"/>
		</g>
		<g>
			<circle fill="#FFF4D1" cx="70" cy="70" r="13"/>
		</g>
		<g>
			<path fill="#FFFFFF" d="M70,57c-7.2,0-13,5.8-13,13c0,3.6,1.5,6.9,3.9,9.2l18.4-18.4C76.9,58.5,73.6,57,70,57z"/>
		</g>
		<g>
			<g>
				<path fill="#FF8000" d="M76,76h-7c-1.1,0-2-0.9-2-2V62c0-1.1,0.9-2,2-2s2,0.9,2,2v10h5c1.1,0,2,0.9,2,2S77.1,76,76,76z"/>
			</g>
		</g>
		<g>
			<path fill="#FFAA00" d="M69,60c-1.1,0-2,0.9-2,2v11.1l4-4V62C71,60.9,70.1,60,69,60z"/>
		</g>
	</g>
</g>
<g id="R-Yellow" display="none">
	<g display="inline">
		<circle fill="#FFD600" cx="55" cy="55" r="55"/>
	</g>
	<g display="inline">
		<g>
			<path fill="#FC6100" d="M81,37.5H23v-5.4c0-3,2.4-5.4,5.4-5.4h47.1c3,0,5.4,2.4,5.4,5.4L81,37.5L81,37.5z"/>
		</g>
		<g>
			<path fill="#FF8000" d="M28.4,26.6c-3,0-5.4,2.4-5.4,5.4v5.4h13l10.9-10.9H28.4z"/>
		</g>
		<g>
			<path fill="#FFFFFF" d="M81,75.6c0,3-2.4,5.4-5.4,5.4H28.4c-3,0-5.4-2.4-5.4-5.4V37.5h58V75.6z"/>
		</g>
		<g>
			<rect x="42" y="44.8" fill="#FFAA00" width="9.1" height="8.2"/>
		</g>
		<g>
			<rect x="42" y="54.7" fill="#FFEBB8" width="9.1" height="8.2"/>
		</g>
		<g>
			<rect x="52.9" y="54.7" fill="#FFEBB8" width="9.1" height="8.2"/>
		</g>
		<g>
			<rect x="30.2" y="44.8" fill="#FFEBB8" width="10" height="8.2"/>
		</g>
		<g>
			<rect x="52.9" y="44.8" fill="#FFEBB8" width="9.1" height="8.2"/>
		</g>
		<g>
			<rect x="63.8" y="44.8" fill="#FFEBB8" width="9.1" height="8.2"/>
		</g>
		<g>
			<rect x="30.2" y="54.7" fill="#FFEBB8" width="10" height="8.2"/>
		</g>
		<g>
			<rect x="30.2" y="64.7" fill="#FFAA00" width="10" height="9.1"/>
		</g>
		<g>
			<rect x="42" y="64.7" fill="#FFEBB8" width="9.1" height="9.1"/>
		</g>
		<g>
			<path fill="#4C2720" d="M35.7,31.2c0,1.5-1.2,2.7-2.7,2.7l0,0c-1.5,0-2.7-1.2-2.7-2.7v-5.4c0-1.5,1.2-2.7,2.7-2.7l0,0
				c1.5,0,2.7,1.2,2.7,2.7V31.2z"/>
		</g>
		<g>
			<path fill="#4C2720" d="M73.8,31.2c0,1.5-1.2,2.7-2.7,2.7l0,0c-1.5,0-2.7-1.2-2.7-2.7v-5.4c0-1.5,1.2-2.7,2.7-2.7l0,0
				c1.5,0,2.7,1.2,2.7,2.7V31.2z"/>
		</g>
		<g>
			<path fill="#4C2720" d="M54.7,31.2c0,1.5-1.2,2.7-2.7,2.7l0,0c-1.5,0-2.7-1.2-2.7-2.7v-5.4c0-1.5,1.2-2.7,2.7-2.7l0,0
				c1.5,0,2.7,1.2,2.7,2.7V31.2z"/>
		</g>
		<g>
			<circle fill="#4C2720" cx="70" cy="70" r="17"/>
		</g>
		<g>
			<path fill="#804B1C" d="M70,53c-9.4,0-17,7.6-17,17c0,4.7,1.9,9,5,12.1l24-24C79,54.9,74.7,53,70,53z"/>
		</g>
		<g>
			<circle fill="#FFF4D1" cx="70" cy="70" r="13"/>
		</g>
		<g>
			<path fill="#FFFFFF" d="M70,57c-7.2,0-13,5.8-13,13c0,3.6,1.5,6.9,3.9,9.2l18.4-18.4C76.9,58.5,73.6,57,70,57z"/>
		</g>
		<g>
			<g>
				<path fill="#FF8000" d="M76,76h-7c-1.1,0-2-0.9-2-2V62c0-1.1,0.9-2,2-2s2,0.9,2,2v10h5c1.1,0,2,0.9,2,2S77.1,76,76,76z"/>
			</g>
		</g>
		<g>
			<path fill="#FFAA00" d="M69,60c-1.1,0-2,0.9-2,2v11.1l4-4V62C71,60.9,70.1,60,69,60z"/>
		</g>
	</g>
</g>
</svg>
