<?xml version="1.0" encoding="utf-8"?>
<!-- Generator: Adobe Illustrator 18.0.0, SVG Export Plug-In . SVG Version: 6.00 Build 0)  -->
<!DOCTYPE svg PUBLIC "-//W3C//DTD SVG 1.1//EN" "http://www.w3.org/Graphics/SVG/1.1/DTD/svg11.dtd">
<svg version="1.1" id="Calque_1" xmlns="http://www.w3.org/2000/svg" xmlns:xlink="http://www.w3.org/1999/xlink" x="0px" y="0px"
	 viewBox="0 0 110 110" enable-background="new 0 0 110 110" xml:space="preserve">
<g id="R-Multicolor">
	<g>
		<circle fill="#26B35E" cx="55" cy="55" r="55"/>
	</g>
	<g>
		<g>
			<g>
				<polygon fill="#64B5F6" points="67,68 65,67 45,67 43,68 55,87 				"/>
			</g>
		</g>
		<g>
			<path fill="#FFCDD2" d="M70,45l-2,1l-3-10l-17,5c0,0,1.5-2.1,3-5c-7.2,0-9,10-9,10l-1-0.5V53l4,10l5.1,4c0.6,0.6,1.4,1,2.2,1H55
				h2.7c0.9,0,1.7-0.4,2.2-1l5.1-4l3.2-8c2.8-0.2,3.8-4.5,3.8-7.8C72,46.1,71,45,70,45z"/>
		</g>
		<g>
			<path fill="#F4B1A9" d="M57.7,68H55h-2.7c-0.9,0-1.7-0.4-2.2-1L45,63v8c0,0,2,4,10,4s10-4,10-4v-8l-5.1,4
				C59.3,67.6,58.5,68,57.7,68z"/>
		</g>
		<g>
			<path fill="#FFCDD2" d="M50.1,67L45,63v8c0,0,2,4,10,4v-7h-2.7C51.5,68,50.7,67.6,50.1,67z"/>
		</g>
		<g>
			<path fill="#FFEBEE" d="M51,36c-7.2,0-9,10-9,10l-2-1c-1,0-2,1.1-2,2.2c0,3.3,1,7.6,3.8,7.8l3.2,8l5.1,4c0.6,0.6,1.4,1,2.2,1H55
				v-29L48,41C48,41,49.5,38.9,51,36z"/>
		</g>
		<g>
			<g>
				<path fill="#212121" d="M52,47c0-1.1-0.9-2-2-2c0,0,0,0,0,0c0,0,0,0,0,0.1c0,1.1-0.9,2-2,2c0,1.1,0.9,1.9,2,1.9
					C51.1,49,52,48.1,52,47z"/>
			</g>
		</g>
		<g>
			<g>
				<path fill="#212121" d="M62,47c0-1.1-0.9-2-2-2c0,0,0,0,0,0c0,0,0,0,0,0.1c0,1.1-0.9,2-2,2c0,1.1,0.9,1.9,2,1.9
					C61.1,49,62,48.1,62,47z"/>
			</g>
		</g>
		<g>
			<g>
				<path fill="#E57373" d="M50,58h10c0,0,0,3-5,3S50,58,50,58z"/>
			</g>
		</g>
		<g>
			<g>
				<path fill="#733825" d="M55,26.4c-8.3,0-15,6.4-15,15V45l2,1c0,0,1.8-10,9-10c-1.5,2.9-3,5-3,5l17-5l3,10l2-1v-3.6
					C70,32.8,63.3,26.4,55,26.4z"/>
			</g>
		</g>
		<g>
			<path fill="#8F4E38" d="M40,41.4V45l2,1c0,0,1.8-10,9-10c-1.5,2.9-3,5-3,5l7-2.1V26.4C46.7,26.4,40,32.8,40,41.4z"/>
		</g>
		<g>
			<g>
				<polygon fill="#D32F2F" points="59,87 56.2,76.8 58,75 55,72 52,75 53.8,76.8 51,87 				"/>
			</g>
		</g>
		<g>
			<g>
				<polygon fill="#EF5451" points="55,87 55,72 55,72 52,75 53.8,76.8 51,87 				"/>
			</g>
		</g>
		<g>
			<g>
				<path fill="#FFFFFF" d="M23,87l4-11c0.6-1.3,1.7-2.4,3-3l13-5l12,19H23z"/>
			</g>
		</g>
		<g>
			<g>
				<path fill="#FFFFFF" d="M87,87l-4-11c-0.6-1.3-1.7-2.4-3-3l-13-5L55,87H87z"/>
			</g>
		</g>
		<g>
			<g>
				<polygon fill="#BBDEFB" points="67,68.1 67,68 65,67 55,72 60.8,77.8 				"/>
			</g>
		</g>
		<g>
			<g>
				<polygon fill="#BBDEFB" points="43,68.1 43,68 45,67 55,72 49.2,77.8 				"/>
			</g>
		</g>
		<g>
			<g>
				<polygon fill="#F0F0F0" points="55,87 45,66 41,68 39,79 46,80 45,87 				"/>
			</g>
		</g>
		<g>
			<g>
				<polygon fill="#F0F0F0" points="55,87 65,66 69,68 71,79 64,80 65,87 				"/>
			</g>
		</g>
		<g>
			<g>
				<g>
					<path fill="#212121" d="M39,64c-3.4,0-7,2.6-7,7v4.1c-1.7,0.4-3,2-3,3.9c0,2.2,1.8,4,4,4s4-1.8,4-4c0-1.9-1.3-3.4-3-3.9V71
						c0-3.4,2.9-5,5-5h6v-2H39z"/>
				</g>
			</g>
			<g>
				<g>
					<g>
						<circle fill="#979797" cx="33" cy="79" r="2"/>
					</g>
				</g>
			</g>
		</g>
		<g>
			<g>
				<g>
					<g>
						<g>
							<path fill="#979797" d="M73,85c0,0.6-0.4,1-1,1c-0.5,0-1-0.4-1-1v-4h1c0.6,0,1,0.5,1,1V85z"/>
						</g>
					</g>
				</g>
			</g>
			<g>
				<g>
					<g>
						<g>
							<path fill="#979797" d="M76,85c0,0.6,0.5,1,1,1c0.6,0,1-0.4,1-1v-4h-1c-0.5,0-1,0.5-1,1V85z"/>
						</g>
					</g>
				</g>
			</g>
			<g>
				<g>
					<path fill="#212121" d="M76,70L76,70c-0.6-3.8-3.8-6-7-6h-4v2h4c1.9,0,4.4,1.3,4.9,4h-0.7c-2.3,0-4.2,1.9-4.2,4.2V82
						c0,1.3,0.8,2.4,2,2.8V82v-7.8c0-1.2,1-2.2,2.2-2.2H76c1.1,0,2,0.9,2,2v8v2.8c1.2-0.4,2-1.5,2-2.8v-8C80,71.8,78.2,70,76,70z"/>
				</g>
			</g>
		</g>
	</g>
</g>
<g id="Multicolor" display="none">
	<g display="inline">
		<g>
			<g>
				<polygon fill="#64B5F6" points="67,68 65,67 45,67 43,68 55,87 				"/>
			</g>
		</g>
		<g>
			<path fill="#FFCDD2" d="M70,45l-2,1l-3-10l-17,5c0,0,1.5-2.1,3-5c-7.2,0-9,10-9,10l-1-0.5V53l4,10l5.1,4c0.6,0.6,1.4,1,2.2,1H55
				h2.7c0.9,0,1.7-0.4,2.2-1l5.1-4l3.2-8c2.8-0.2,3.8-4.5,3.8-7.8C72,46.1,71,45,70,45z"/>
		</g>
		<g>
			<path fill="#F4B1A9" d="M57.7,68H55h-2.7c-0.9,0-1.7-0.4-2.2-1L45,63v8c0,0,2,4,10,4s10-4,10-4v-8l-5.1,4
				C59.3,67.6,58.5,68,57.7,68z"/>
		</g>
		<g>
			<path fill="#FFCDD2" d="M50.1,67L45,63v8c0,0,2,4,10,4v-7h-2.7C51.5,68,50.7,67.6,50.1,67z"/>
		</g>
		<g>
			<path fill="#FFEBEE" d="M51,36c-7.2,0-9,10-9,10l-2-1c-1,0-2,1.1-2,2.2c0,3.3,1,7.6,3.8,7.8l3.2,8l5.1,4c0.6,0.6,1.4,1,2.2,1H55
				v-29L48,41C48,41,49.5,38.9,51,36z"/>
		</g>
		<g>
			<g>
				<path fill="#212121" d="M52,47c0-1.1-0.9-2-2-2c0,0,0,0,0,0c0,0,0,0,0,0.1c0,1.1-0.9,2-2,2c0,1.1,0.9,1.9,2,1.9
					C51.1,49,52,48.1,52,47z"/>
			</g>
		</g>
		<g>
			<g>
				<path fill="#212121" d="M62,47c0-1.1-0.9-2-2-2c0,0,0,0,0,0c0,0,0,0,0,0.1c0,1.1-0.9,2-2,2c0,1.1,0.9,1.9,2,1.9
					C61.1,49,62,48.1,62,47z"/>
			</g>
		</g>
		<g>
			<g>
				<path fill="#E57373" d="M50,58h10c0,0,0,3-5,3S50,58,50,58z"/>
			</g>
		</g>
		<g>
			<g>
				<path fill="#733825" d="M55,26.4c-8.3,0-15,6.4-15,15V45l2,1c0,0,1.8-10,9-10c-1.5,2.9-3,5-3,5l17-5l3,10l2-1v-3.6
					C70,32.8,63.3,26.4,55,26.4z"/>
			</g>
		</g>
		<g>
			<path fill="#8F4E38" d="M40,41.4V45l2,1c0,0,1.8-10,9-10c-1.5,2.9-3,5-3,5l7-2.1V26.4C46.7,26.4,40,32.8,40,41.4z"/>
		</g>
		<g>
			<g>
				<polygon fill="#D32F2F" points="59,87 56.2,76.8 58,75 55,72 52,75 53.8,76.8 51,87 				"/>
			</g>
		</g>
		<g>
			<g>
				<polygon fill="#EF5451" points="55,87 55,72 55,72 52,75 53.8,76.8 51,87 				"/>
			</g>
		</g>
		<g>
			<g>
				<path fill="#FFFFFF" d="M23,87l4-11c0.6-1.3,1.7-2.4,3-3l13-5l12,19H23z"/>
			</g>
		</g>
		<g>
			<g>
				<path fill="#FFFFFF" d="M87,87l-4-11c-0.6-1.3-1.7-2.4-3-3l-13-5L55,87H87z"/>
			</g>
		</g>
		<g>
			<g>
				<polygon fill="#BBDEFB" points="67,68.1 67,68 65,67 55,72 60.8,77.8 				"/>
			</g>
		</g>
		<g>
			<g>
				<polygon fill="#BBDEFB" points="43,68.1 43,68 45,67 55,72 49.2,77.8 				"/>
			</g>
		</g>
		<g>
			<g>
				<polygon fill="#F0F0F0" points="55,87 45,66 41,68 39,79 46,80 45,87 				"/>
			</g>
		</g>
		<g>
			<g>
				<polygon fill="#F0F0F0" points="55,87 65,66 69,68 71,79 64,80 65,87 				"/>
			</g>
		</g>
		<g>
			<g>
				<g>
					<path fill="#212121" d="M39,64c-3.4,0-7,2.6-7,7v4.1c-1.7,0.4-3,2-3,3.9c0,2.2,1.8,4,4,4s4-1.8,4-4c0-1.9-1.3-3.4-3-3.9V71
						c0-3.4,2.9-5,5-5h6v-2H39z"/>
				</g>
			</g>
			<g>
				<g>
					<g>
						<circle fill="#979797" cx="33" cy="79" r="2"/>
					</g>
				</g>
			</g>
		</g>
		<g>
			<g>
				<g>
					<g>
						<g>
							<path fill="#979797" d="M73,85c0,0.6-0.4,1-1,1c-0.5,0-1-0.4-1-1v-4h1c0.6,0,1,0.5,1,1V85z"/>
						</g>
					</g>
				</g>
			</g>
			<g>
				<g>
					<g>
						<g>
							<path fill="#979797" d="M76,85c0,0.6,0.5,1,1,1c0.6,0,1-0.4,1-1v-4h-1c-0.5,0-1,0.5-1,1V85z"/>
						</g>
					</g>
				</g>
			</g>
			<g>
				<g>
					<path fill="#212121" d="M76,70L76,70c-0.6-3.8-3.8-6-7-6h-4v2h4c1.9,0,4.4,1.3,4.9,4h-0.7c-2.3,0-4.2,1.9-4.2,4.2V82
						c0,1.3,0.8,2.4,2,2.8V82v-7.8c0-1.2,1-2.2,2.2-2.2H76c1.1,0,2,0.9,2,2v8v2.8c1.2-0.4,2-1.5,2-2.8v-8C80,71.8,78.2,70,76,70z"/>
				</g>
			</g>
		</g>
	</g>
</g>
<g id="Blue" display="none">
	<g display="inline">
		<g>
			<g>
				<polygon fill="#FFFFFF" points="67,68 65,67 45,67 43,68 55,87 				"/>
			</g>
			<path fill="#C5CAE9" d="M57.7,68H55h-2.7c-0.9,0-1.7-0.4-2.2-1L45,63v8c0,0,2,4,10,4s10-4,10-4v-8l-5.1,4
				C59.3,67.6,58.5,68,57.7,68z"/>
			<path fill="#E8EAF6" d="M50.1,67L45,63v8c0,0,2,4,10,4v-7h-2.7C51.5,68,50.7,67.6,50.1,67z"/>
			<g>
				<polygon fill="#2979FF" points="59,87 56.2,76.8 58,75 55,72 52,75 53.8,76.8 51,87 				"/>
			</g>
			<g>
				<polygon fill="#448AFF" points="55,87 55,72 55,72 52,75 53.8,76.8 51,87 				"/>
			</g>
			<g>
				<path fill="#FFFFFF" d="M23,87l4-11c0.6-1.3,1.7-2.4,3-3l13-5l12,19H23z"/>
			</g>
			<g>
				<path fill="#FFFFFF" d="M87,87l-4-11c-0.6-1.3-1.7-2.4-3-3l-13-5L55,87H87z"/>
			</g>
			<g>
				<polygon fill="#FFFFFF" points="67,68.1 67,68 65,67 55,72 60.8,77.8 				"/>
			</g>
			<g>
				<polygon fill="#FFFFFF" points="43,68.1 43,68 45,67 55,72 49.2,77.8 				"/>
			</g>
			<g>
				<polygon fill="#E8EAF6" points="55,87 45,66 41,68 39,79 46,80 45,87 				"/>
			</g>
			<g>
				<polygon fill="#E8EAF6" points="55,87 65,66 69,68 71,79 64,80 65,87 				"/>
			</g>
			<g>
				<g>
					<path fill="#1A3B7E" d="M39,64c-3.4,0-7,2.6-7,7v4.1c-1.7,0.4-3,2-3,3.9c0,2.2,1.8,4,4,4s4-1.8,4-4c0-1.9-1.3-3.4-3-3.9V71
						c0-3.4,2.9-5,5-5h6v-2H39z"/>
				</g>
				<g>
					<g>
						<circle fill="#1565C0" cx="33" cy="79" r="2"/>
					</g>
				</g>
			</g>
			<g>
				<g>
					<g>
						<g>
							<path fill="#1565C0" d="M73,85c0,0.6-0.4,1-1,1c-0.5,0-1-0.4-1-1v-4h1c0.6,0,1,0.5,1,1V85z"/>
						</g>
					</g>
				</g>
				<g>
					<g>
						<g>
							<path fill="#1565C0" d="M76,85c0,0.6,0.5,1,1,1c0.6,0,1-0.4,1-1v-4h-1c-0.5,0-1,0.5-1,1V85z"/>
						</g>
					</g>
				</g>
				<g>
					<path fill="#1A3B7E" d="M76,70L76,70c-0.6-3.8-3.8-6-7-6h-4v2h4c1.9,0,4.4,1.3,4.9,4h-0.7c-2.3,0-4.2,1.9-4.2,4.2V82
						c0,1.3,0.8,2.4,2,2.8V82v-7.8c0-1.2,1-2.2,2.2-2.2H76c1.1,0,2,0.9,2,2v8v2.8c1.2-0.4,2-1.5,2-2.8v-8C80,71.8,78.2,70,76,70z"/>
				</g>
			</g>
		</g>
		<path fill="#E8EAF6" d="M70,45l-2,1l-3-10l-17,5c0,0,1.5-2.1,3-5c-7.2,0-9,10-9,10l-1-0.5V53l4,10l5.1,4c0.6,0.6,1.4,1,2.2,1H55
			h2.7c0.9,0,1.7-0.4,2.2-1l5.1-4l3.2-8c2.8-0.2,3.8-4.5,3.8-7.8C72,46.1,71,45,70,45z"/>
		<path fill="#FFFFFF" d="M51,36c-7.2,0-9,10-9,10l-2-1c-1,0-2,1.1-2,2.2c0,3.3,1,7.6,3.8,7.8l3.2,8l5.1,4c0.6,0.6,1.4,1,2.2,1H55
			v-29L48,41C48,41,49.5,38.9,51,36z"/>
		<g>
			<path fill="#1A3B7E" d="M52,47c0-1.1-0.9-2-2-2c0,0,0,0,0,0c0,0,0,0,0,0.1c0,1.1-0.9,2-2,2c0,1.1,0.9,1.9,2,1.9
				C51.1,49,52,48.1,52,47z"/>
		</g>
		<g>
			<path fill="#1A3B7E" d="M62,47c0-1.1-0.9-2-2-2c0,0,0,0,0,0c0,0,0,0,0,0.1c0,1.1-0.9,2-2,2c0,1.1,0.9,1.9,2,1.9
				C61.1,49,62,48.1,62,47z"/>
		</g>
		<g>
			<path fill="#1E88E5" d="M50,58h10c0,0,0,3-5,3S50,58,50,58z"/>
		</g>
		<g>
			<path fill="#0D57A1" d="M55,26.4c-8.3,0-15,6.4-15,15V45l2,1c0,0,1.8-10,9-10c-1.5,2.9-3,5-3,5l17-5l3,10l2-1v-3.6
				C70,32.8,63.3,26.4,55,26.4z"/>
		</g>
		<path fill="#1565C0" d="M40,41.4V45l2,1c0,0,1.8-10,9-10c-1.5,2.9-3,5-3,5l7-2.1V26.4C46.7,26.4,40,32.8,40,41.4z"/>
	</g>
</g>
<g id="R-Blue" display="none">
	<g display="inline">
		<circle fill="#00B0FF" cx="55" cy="55" r="55"/>
	</g>
	<g display="inline">
		<g>
			<g>
				<polygon fill="#FFFFFF" points="67,68 65,67 45,67 43,68 55,87 				"/>
			</g>
			<path fill="#C5CAE9" d="M57.7,68H55h-2.7c-0.9,0-1.7-0.4-2.2-1L45,63v8c0,0,2,4,10,4s10-4,10-4v-8l-5.1,4
				C59.3,67.6,58.5,68,57.7,68z"/>
			<path fill="#E8EAF6" d="M50.1,67L45,63v8c0,0,2,4,10,4v-7h-2.7C51.5,68,50.7,67.6,50.1,67z"/>
			<g>
				<polygon fill="#2979FF" points="59,87 56.2,76.8 58,75 55,72 52,75 53.8,76.8 51,87 				"/>
			</g>
			<g>
				<polygon fill="#448AFF" points="55,87 55,72 55,72 52,75 53.8,76.8 51,87 				"/>
			</g>
			<g>
				<path fill="#FFFFFF" d="M23,87l4-11c0.6-1.3,1.7-2.4,3-3l13-5l12,19H23z"/>
			</g>
			<g>
				<path fill="#FFFFFF" d="M87,87l-4-11c-0.6-1.3-1.7-2.4-3-3l-13-5L55,87H87z"/>
			</g>
			<g>
				<polygon fill="#FFFFFF" points="67,68.1 67,68 65,67 55,72 60.8,77.8 				"/>
			</g>
			<g>
				<polygon fill="#FFFFFF" points="43,68.1 43,68 45,67 55,72 49.2,77.8 				"/>
			</g>
			<g>
				<polygon fill="#E8EAF6" points="55,87 45,66 41,68 39,79 46,80 45,87 				"/>
			</g>
			<g>
				<polygon fill="#E8EAF6" points="55,87 65,66 69,68 71,79 64,80 65,87 				"/>
			</g>
			<g>
				<g>
					<path fill="#1A3B7E" d="M39,64c-3.4,0-7,2.6-7,7v4.1c-1.7,0.4-3,2-3,3.9c0,2.2,1.8,4,4,4s4-1.8,4-4c0-1.9-1.3-3.4-3-3.9V71
						c0-3.4,2.9-5,5-5h6v-2H39z"/>
				</g>
				<g>
					<g>
						<circle fill="#1565C0" cx="33" cy="79" r="2"/>
					</g>
				</g>
			</g>
			<g>
				<g>
					<g>
						<g>
							<path fill="#1565C0" d="M73,85c0,0.6-0.4,1-1,1c-0.5,0-1-0.4-1-1v-4h1c0.6,0,1,0.5,1,1V85z"/>
						</g>
					</g>
				</g>
				<g>
					<g>
						<g>
							<path fill="#1565C0" d="M76,85c0,0.6,0.5,1,1,1c0.6,0,1-0.4,1-1v-4h-1c-0.5,0-1,0.5-1,1V85z"/>
						</g>
					</g>
				</g>
				<g>
					<path fill="#1A3B7E" d="M76,70L76,70c-0.6-3.8-3.8-6-7-6h-4v2h4c1.9,0,4.4,1.3,4.9,4h-0.7c-2.3,0-4.2,1.9-4.2,4.2V82
						c0,1.3,0.8,2.4,2,2.8V82v-7.8c0-1.2,1-2.2,2.2-2.2H76c1.1,0,2,0.9,2,2v8v2.8c1.2-0.4,2-1.5,2-2.8v-8C80,71.8,78.2,70,76,70z"/>
				</g>
			</g>
		</g>
		<path fill="#E8EAF6" d="M70,45l-2,1l-3-10l-17,5c0,0,1.5-2.1,3-5c-7.2,0-9,10-9,10l-1-0.5V53l4,10l5.1,4c0.6,0.6,1.4,1,2.2,1H55
			h2.7c0.9,0,1.7-0.4,2.2-1l5.1-4l3.2-8c2.8-0.2,3.8-4.5,3.8-7.8C72,46.1,71,45,70,45z"/>
		<path fill="#FFFFFF" d="M51,36c-7.2,0-9,10-9,10l-2-1c-1,0-2,1.1-2,2.2c0,3.3,1,7.6,3.8,7.8l3.2,8l5.1,4c0.6,0.6,1.4,1,2.2,1H55
			v-29L48,41C48,41,49.5,38.9,51,36z"/>
		<g>
			<path fill="#1A3B7E" d="M52,47c0-1.1-0.9-2-2-2c0,0,0,0,0,0c0,0,0,0,0,0.1c0,1.1-0.9,2-2,2c0,1.1,0.9,1.9,2,1.9
				C51.1,49,52,48.1,52,47z"/>
		</g>
		<g>
			<path fill="#1A3B7E" d="M62,47c0-1.1-0.9-2-2-2c0,0,0,0,0,0c0,0,0,0,0,0.1c0,1.1-0.9,2-2,2c0,1.1,0.9,1.9,2,1.9
				C61.1,49,62,48.1,62,47z"/>
		</g>
		<g>
			<path fill="#1E88E5" d="M50,58h10c0,0,0,3-5,3S50,58,50,58z"/>
		</g>
		<g>
			<path fill="#0C58A2" d="M55,26.4c-8.3,0-15,6.4-15,15V45l2,1c0,0,1.8-10,9-10c-1.5,2.9-3,5-3,5l17-5l3,10l2-1v-3.6
				C70,32.8,63.3,26.4,55,26.4z"/>
		</g>
		<path fill="#1565C0" d="M40,41.4V45l2,1c0,0,1.8-10,9-10c-1.5,2.9-3,5-3,5l7-2.1V26.4C46.7,26.4,40,32.8,40,41.4z"/>
	</g>
</g>
<g id="Green" display="none">
	<g display="inline">
		<g>
			<g>
				<polygon fill="#FFFFFF" points="67,68 65,67 45,67 43,68 55,87 				"/>
			</g>
			<path fill="#C5EB98" d="M57.7,68H55h-2.7c-0.9,0-1.7-0.4-2.2-1L45,63v8c0,0,2,4,10,4s10-4,10-4v-8l-5.1,4
				C59.3,67.6,58.5,68,57.7,68z"/>
			<path fill="#ECF5E1" d="M50.1,67L45,63v8c0,0,2,4,10,4v-7h-2.7C51.5,68,50.7,67.6,50.1,67z"/>
			<g>
				<polygon fill="#00C250" points="59,87 56.2,76.8 58,75 55,72 52,75 53.8,76.8 51,87 				"/>
			</g>
			<g>
				<polygon fill="#00E676" points="55,87 55,72 55,72 52,75 53.8,76.8 51,87 				"/>
			</g>
			<g>
				<path fill="#FFFFFF" d="M23,87l4-11c0.6-1.3,1.7-2.4,3-3l13-5l12,19H23z"/>
			</g>
			<g>
				<path fill="#FFFFFF" d="M87,87l-4-11c-0.6-1.3-1.7-2.4-3-3l-13-5L55,87H87z"/>
			</g>
			<g>
				<polygon fill="#FFFFFF" points="67,68.1 67,68 65,67 55,72 60.8,77.8 				"/>
			</g>
			<g>
				<polygon fill="#FFFFFF" points="43,68.1 43,68 45,67 55,72 49.2,77.8 				"/>
			</g>
			<g>
				<polygon fill="#ECF5E1" points="55,87 45,66 41,68 39,79 46,80 45,87 				"/>
			</g>
			<g>
				<polygon fill="#ECF5E1" points="55,87 65,66 69,68 71,79 64,80 65,87 				"/>
			</g>
			<g>
				<g>
					<path fill="#003B15" d="M39,64c-3.4,0-7,2.6-7,7v4.1c-1.7,0.4-3,2-3,3.9c0,2.2,1.8,4,4,4s4-1.8,4-4c0-1.9-1.3-3.4-3-3.9V71
						c0-3.4,2.9-5,5-5h6v-2H39z"/>
				</g>
				<g>
					<g>
						<circle fill="#008232" cx="33" cy="79" r="2"/>
					</g>
				</g>
			</g>
			<g>
				<g>
					<g>
						<g>
							<path fill="#008232" d="M73,85c0,0.6-0.4,1-1,1c-0.5,0-1-0.4-1-1v-4h1c0.6,0,1,0.5,1,1V85z"/>
						</g>
					</g>
				</g>
				<g>
					<g>
						<g>
							<path fill="#008232" d="M76,85c0,0.6,0.5,1,1,1c0.6,0,1-0.4,1-1v-4h-1c-0.5,0-1,0.5-1,1V85z"/>
						</g>
					</g>
				</g>
				<g>
					<path fill="#003B15" d="M76,70L76,70c-0.6-3.8-3.8-6-7-6h-4v2h4c1.9,0,4.4,1.3,4.9,4h-0.7c-2.3,0-4.2,1.9-4.2,4.2V82
						c0,1.3,0.8,2.4,2,2.8V82v-7.8c0-1.2,1-2.2,2.2-2.2H76c1.1,0,2,0.9,2,2v8v2.8c1.2-0.4,2-1.5,2-2.8v-8C80,71.8,78.2,70,76,70z"/>
				</g>
			</g>
		</g>
		<path fill="#ECF5E1" d="M70,45l-2,1l-3-10l-17,5c0,0,1.5-2.1,3-5c-7.2,0-9,10-9,10l-1-0.5V53l4,10l5.1,4c0.6,0.6,1.4,1,2.2,1H55
			h2.7c0.9,0,1.7-0.4,2.2-1l5.1-4l3.2-8c2.8-0.2,3.8-4.5,3.8-7.8C72,46.1,71,45,70,45z"/>
		<path fill="#FFFFFF" d="M51,36c-7.2,0-9,10-9,10l-2-1c-1,0-2,1.1-2,2.2c0,3.3,1,7.6,3.8,7.8l3.2,8l5.1,4c0.6,0.6,1.4,1,2.2,1H55
			v-29L48,41C48,41,49.5,38.9,51,36z"/>
		<g>
			<path fill="#003B15" d="M52,47c0-1.1-0.9-2-2-2c0,0,0,0,0,0c0,0,0,0,0,0.1c0,1.1-0.9,2-2,2c0,1.1,0.9,1.9,2,1.9
				C51.1,49,52,48.1,52,47z"/>
		</g>
		<g>
			<path fill="#003B15" d="M62,47c0-1.1-0.9-2-2-2c0,0,0,0,0,0c0,0,0,0,0,0.1c0,1.1-0.9,2-2,2c0,1.1,0.9,1.9,2,1.9
				C61.1,49,62,48.1,62,47z"/>
		</g>
		<g>
			<path fill="#56C435" d="M50,58h10c0,0,0,3-5,3S50,58,50,58z"/>
		</g>
		<g>
			<path fill="#006E31" d="M55,26.4c-8.3,0-15,6.4-15,15V45l2,1c0,0,1.8-10,9-10c-1.5,2.9-3,5-3,5l17-5l3,10l2-1v-3.6
				C70,32.8,63.3,26.4,55,26.4z"/>
		</g>
		<path fill="#008232" d="M40,41.4V45l2,1c0,0,1.8-10,9-10c-1.5,2.9-3,5-3,5l7-2.1V26.4C46.7,26.4,40,32.8,40,41.4z"/>
	</g>
</g>
<g id="R-Green" display="none">
	<g display="inline">
		<circle fill="#64DD17" cx="55" cy="55" r="55"/>
	</g>
	<g display="inline">
		<g>
			<g>
				<polygon fill="#FFFFFF" points="67,68 65,67 45,67 43,68 55,87 				"/>
			</g>
			<path fill="#C5EB98" d="M57.7,68H55h-2.7c-0.9,0-1.7-0.4-2.2-1L45,63v8c0,0,2,4,10,4s10-4,10-4v-8l-5.1,4
				C59.3,67.6,58.5,68,57.7,68z"/>
			<path fill="#ECF5E1" d="M50.1,67L45,63v8c0,0,2,4,10,4v-7h-2.7C51.5,68,50.7,67.6,50.1,67z"/>
			<g>
				<polygon fill="#00C250" points="59,87 56.2,76.8 58,75 55,72 52,75 53.8,76.8 51,87 				"/>
			</g>
			<g>
				<polygon fill="#00E676" points="55,87 55,72 55,72 52,75 53.8,76.8 51,87 				"/>
			</g>
			<g>
				<path fill="#FFFFFF" d="M23,87l4-11c0.6-1.3,1.7-2.4,3-3l13-5l12,19H23z"/>
			</g>
			<g>
				<path fill="#FFFFFF" d="M87,87l-4-11c-0.6-1.3-1.7-2.4-3-3l-13-5L55,87H87z"/>
			</g>
			<g>
				<polygon fill="#FFFFFF" points="67,68.1 67,68 65,67 55,72 60.8,77.8 				"/>
			</g>
			<g>
				<polygon fill="#FFFFFF" points="43,68.1 43,68 45,67 55,72 49.2,77.8 				"/>
			</g>
			<g>
				<polygon fill="#ECF5E1" points="55,87 45,66 41,68 39,79 46,80 45,87 				"/>
			</g>
			<g>
				<polygon fill="#ECF5E1" points="55,87 65,66 69,68 71,79 64,80 65,87 				"/>
			</g>
			<g>
				<g>
					<path fill="#003B15" d="M39,64c-3.4,0-7,2.6-7,7v4.1c-1.7,0.4-3,2-3,3.9c0,2.2,1.8,4,4,4s4-1.8,4-4c0-1.9-1.3-3.4-3-3.9V71
						c0-3.4,2.9-5,5-5h6v-2H39z"/>
				</g>
				<g>
					<g>
						<circle fill="#008232" cx="33" cy="79" r="2"/>
					</g>
				</g>
			</g>
			<g>
				<g>
					<g>
						<g>
							<path fill="#008232" d="M73,85c0,0.6-0.4,1-1,1c-0.5,0-1-0.4-1-1v-4h1c0.6,0,1,0.5,1,1V85z"/>
						</g>
					</g>
				</g>
				<g>
					<g>
						<g>
							<path fill="#008232" d="M76,85c0,0.6,0.5,1,1,1c0.6,0,1-0.4,1-1v-4h-1c-0.5,0-1,0.5-1,1V85z"/>
						</g>
					</g>
				</g>
				<g>
					<path fill="#003B15" d="M76,70L76,70c-0.6-3.8-3.8-6-7-6h-4v2h4c1.9,0,4.4,1.3,4.9,4h-0.7c-2.3,0-4.2,1.9-4.2,4.2V82
						c0,1.3,0.8,2.4,2,2.8V82v-7.8c0-1.2,1-2.2,2.2-2.2H76c1.1,0,2,0.9,2,2v8v2.8c1.2-0.4,2-1.5,2-2.8v-8C80,71.8,78.2,70,76,70z"/>
				</g>
			</g>
		</g>
		<path fill="#ECF5E1" d="M70,45l-2,1l-3-10l-17,5c0,0,1.5-2.1,3-5c-7.2,0-9,10-9,10l-1-0.5V53l4,10l5.1,4c0.6,0.6,1.4,1,2.2,1H55
			h2.7c0.9,0,1.7-0.4,2.2-1l5.1-4l3.2-8c2.8-0.2,3.8-4.5,3.8-7.8C72,46.1,71,45,70,45z"/>
		<path fill="#FFFFFF" d="M51,36c-7.2,0-9,10-9,10l-2-1c-1,0-2,1.1-2,2.2c0,3.3,1,7.6,3.8,7.8l3.2,8l5.1,4c0.6,0.6,1.4,1,2.2,1H55
			v-29L48,41C48,41,49.5,38.9,51,36z"/>
		<g>
			<path fill="#003B15" d="M52,47c0-1.1-0.9-2-2-2c0,0,0,0,0,0c0,0,0,0,0,0.1c0,1.1-0.9,2-2,2c0,1.1,0.9,1.9,2,1.9
				C51.1,49,52,48.1,52,47z"/>
		</g>
		<g>
			<path fill="#003B15" d="M62,47c0-1.1-0.9-2-2-2c0,0,0,0,0,0c0,0,0,0,0,0.1c0,1.1-0.9,2-2,2c0,1.1,0.9,1.9,2,1.9
				C61.1,49,62,48.1,62,47z"/>
		</g>
		<g>
			<path fill="#56C435" d="M50,58h10c0,0,0,3-5,3S50,58,50,58z"/>
		</g>
		<g>
			<path fill="#006E31" d="M55,26.4c-8.3,0-15,6.4-15,15V45l2,1c0,0,1.8-10,9-10c-1.5,2.9-3,5-3,5l17-5l3,10l2-1v-3.6
				C70,32.8,63.3,26.4,55,26.4z"/>
		</g>
		<path fill="#008232" d="M40,41.4V45l2,1c0,0,1.8-10,9-10c-1.5,2.9-3,5-3,5l7-2.1V26.4C46.7,26.4,40,32.8,40,41.4z"/>
	</g>
</g>
<g id="Red" display="none">
	<g display="inline">
		<g>
			<g>
				<polygon fill="#FFFFFF" points="67,68 65,67 45,67 43,68 55,87 				"/>
			</g>
			<path fill="#FFC7B2" d="M57.7,68H55h-2.7c-0.9,0-1.7-0.4-2.2-1L45,63v8c0,0,2,4,10,4s10-4,10-4v-8l-5.1,4
				C59.3,67.6,58.5,68,57.7,68z"/>
			<path fill="#FFE4DE" d="M50.1,67L45,63v8c0,0,2,4,10,4v-7h-2.7C51.5,68,50.7,67.6,50.1,67z"/>
			<g>
				<polygon fill="#D22600" points="59,87 56.2,76.8 58,75 55,72 52,75 53.8,76.8 51,87 				"/>
			</g>
			<g>
				<polygon fill="#FF2F00" points="55,87 55,72 55,72 52,75 53.8,76.8 51,87 				"/>
			</g>
			<g>
				<path fill="#FFFFFF" d="M23,87l4-11c0.6-1.3,1.7-2.4,3-3l13-5l12,19H23z"/>
			</g>
			<g>
				<path fill="#FFFFFF" d="M87,87l-4-11c-0.6-1.3-1.7-2.4-3-3l-13-5L55,87H87z"/>
			</g>
			<g>
				<polygon fill="#FFFFFF" points="67,68.1 67,68 65,67 55,72 60.8,77.8 				"/>
			</g>
			<g>
				<polygon fill="#FFFFFF" points="43,68.1 43,68 45,67 55,72 49.2,77.8 				"/>
			</g>
			<g>
				<polygon fill="#FFE4DE" points="55,87 45,66 41,68 39,79 46,80 45,87 				"/>
			</g>
			<g>
				<polygon fill="#FFE4DE" points="55,87 65,66 69,68 71,79 64,80 65,87 				"/>
			</g>
			<g>
				<g>
					<path fill="#2C0900" d="M39,64c-3.4,0-7,2.6-7,7v4.1c-1.7,0.4-3,2-3,3.9c0,2.2,1.8,4,4,4s4-1.8,4-4c0-1.9-1.3-3.4-3-3.9V71
						c0-3.4,2.9-5,5-5h6v-2H39z"/>
				</g>
				<g>
					<g>
						<circle fill="#99412B" cx="33" cy="79" r="2"/>
					</g>
				</g>
			</g>
			<g>
				<g>
					<g>
						<g>
							<path fill="#99412B" d="M73,85c0,0.6-0.4,1-1,1c-0.5,0-1-0.4-1-1v-4h1c0.6,0,1,0.5,1,1V85z"/>
						</g>
					</g>
				</g>
				<g>
					<g>
						<g>
							<path fill="#99412B" d="M76,85c0,0.6,0.5,1,1,1c0.6,0,1-0.4,1-1v-4h-1c-0.5,0-1,0.5-1,1V85z"/>
						</g>
					</g>
				</g>
				<g>
					<path fill="#2C0900" d="M76,70L76,70c-0.6-3.8-3.8-6-7-6h-4v2h4c1.9,0,4.4,1.3,4.9,4h-0.7c-2.3,0-4.2,1.9-4.2,4.2V82
						c0,1.3,0.8,2.4,2,2.8V82v-7.8c0-1.2,1-2.2,2.2-2.2H76c1.1,0,2,0.9,2,2v8v2.8c1.2-0.4,2-1.5,2-2.8v-8C80,71.8,78.2,70,76,70z"/>
				</g>
			</g>
		</g>
		<path fill="#FFE4DE" d="M70,45l-2,1l-3-10l-17,5c0,0,1.5-2.1,3-5c-7.2,0-9,10-9,10l-1-0.5V53l4,10l5.1,4c0.6,0.6,1.4,1,2.2,1H55
			h2.7c0.9,0,1.7-0.4,2.2-1l5.1-4l3.2-8c2.8-0.2,3.8-4.5,3.8-7.8C72,46.1,71,45,70,45z"/>
		<path fill="#FFFFFF" d="M51,36c-7.2,0-9,10-9,10l-2-1c-1,0-2,1.1-2,2.2c0,3.3,1,7.6,3.8,7.8l3.2,8l5.1,4c0.6,0.6,1.4,1,2.2,1H55
			v-29L48,41C48,41,49.5,38.9,51,36z"/>
		<g>
			<path fill="#2C0900" d="M52,47c0-1.1-0.9-2-2-2c0,0,0,0,0,0c0,0,0,0,0,0.1c0,1.1-0.9,2-2,2c0,1.1,0.9,1.9,2,1.9
				C51.1,49,52,48.1,52,47z"/>
		</g>
		<g>
			<path fill="#2C0900" d="M62,47c0-1.1-0.9-2-2-2c0,0,0,0,0,0c0,0,0,0,0,0.1c0,1.1-0.9,2-2,2c0,1.1,0.9,1.9,2,1.9
				C61.1,49,62,48.1,62,47z"/>
		</g>
		<g>
			<path fill="#DE5735" d="M50,58h10c0,0,0,3-5,3S50,58,50,58z"/>
		</g>
		<g>
			<path fill="#7A1C05" d="M55,26.4c-8.3,0-15,6.4-15,15V45l2,1c0,0,1.8-10,9-10c-1.5,2.9-3,5-3,5l17-5l3,10l2-1v-3.6
				C70,32.8,63.3,26.4,55,26.4z"/>
		</g>
		<path fill="#99412B" d="M40,41.4V45l2,1c0,0,1.8-10,9-10c-1.5,2.9-3,5-3,5l7-2.1V26.4C46.7,26.4,40,32.8,40,41.4z"/>
	</g>
</g>
<g id="R-Red" display="none">
	<g display="inline">
		<circle fill="#FF5722" cx="55" cy="55" r="55"/>
	</g>
	<g display="inline">
		<g>
			<g>
				<polygon fill="#FFFFFF" points="67,68 65,67 45,67 43,68 55,87 				"/>
			</g>
			<path fill="#FFC7B2" d="M57.7,68H55h-2.7c-0.9,0-1.7-0.4-2.2-1L45,63v8c0,0,2,4,10,4s10-4,10-4v-8l-5.1,4
				C59.3,67.6,58.5,68,57.7,68z"/>
			<path fill="#FFE4DE" d="M50.1,67L45,63v8c0,0,2,4,10,4v-7h-2.7C51.5,68,50.7,67.6,50.1,67z"/>
			<g>
				<polygon fill="#D22600" points="59,87 56.2,76.8 58,75 55,72 52,75 53.8,76.8 51,87 				"/>
			</g>
			<g>
				<polygon fill="#FF2F00" points="55,87 55,72 55,72 52,75 53.8,76.8 51,87 				"/>
			</g>
			<g>
				<path fill="#FFFFFF" d="M23,87l4-11c0.6-1.3,1.7-2.4,3-3l13-5l12,19H23z"/>
			</g>
			<g>
				<path fill="#FFFFFF" d="M87,87l-4-11c-0.6-1.3-1.7-2.4-3-3l-13-5L55,87H87z"/>
			</g>
			<g>
				<polygon fill="#FFFFFF" points="67,68.1 67,68 65,67 55,72 60.8,77.8 				"/>
			</g>
			<g>
				<polygon fill="#FFFFFF" points="43,68.1 43,68 45,67 55,72 49.2,77.8 				"/>
			</g>
			<g>
				<polygon fill="#FFE4DE" points="55,87 45,66 41,68 39,79 46,80 45,87 				"/>
			</g>
			<g>
				<polygon fill="#FFE4DE" points="55,87 65,66 69,68 71,79 64,80 65,87 				"/>
			</g>
			<g>
				<g>
					<path fill="#2C0900" d="M39,64c-3.4,0-7,2.6-7,7v4.1c-1.7,0.4-3,2-3,3.9c0,2.2,1.8,4,4,4s4-1.8,4-4c0-1.9-1.3-3.4-3-3.9V71
						c0-3.4,2.9-5,5-5h6v-2H39z"/>
				</g>
				<g>
					<g>
						<circle fill="#99412B" cx="33" cy="79" r="2"/>
					</g>
				</g>
			</g>
			<g>
				<g>
					<g>
						<g>
							<path fill="#99412B" d="M73,85c0,0.6-0.4,1-1,1c-0.5,0-1-0.4-1-1v-4h1c0.6,0,1,0.5,1,1V85z"/>
						</g>
					</g>
				</g>
				<g>
					<g>
						<g>
							<path fill="#99412B" d="M76,85c0,0.6,0.5,1,1,1c0.6,0,1-0.4,1-1v-4h-1c-0.5,0-1,0.5-1,1V85z"/>
						</g>
					</g>
				</g>
				<g>
					<path fill="#2C0900" d="M76,70L76,70c-0.6-3.8-3.8-6-7-6h-4v2h4c1.9,0,4.4,1.3,4.9,4h-0.7c-2.3,0-4.2,1.9-4.2,4.2V82
						c0,1.3,0.8,2.4,2,2.8V82v-7.8c0-1.2,1-2.2,2.2-2.2H76c1.1,0,2,0.9,2,2v8v2.8c1.2-0.4,2-1.5,2-2.8v-8C80,71.8,78.2,70,76,70z"/>
				</g>
			</g>
		</g>
		<path fill="#FFE4DE" d="M70,45l-2,1l-3-10l-17,5c0,0,1.5-2.1,3-5c-7.2,0-9,10-9,10l-1-0.5V53l4,10l5.1,4c0.6,0.6,1.4,1,2.2,1H55
			h2.7c0.9,0,1.7-0.4,2.2-1l5.1-4l3.2-8c2.8-0.2,3.8-4.5,3.8-7.8C72,46.1,71,45,70,45z"/>
		<path fill="#FFFFFF" d="M51,36c-7.2,0-9,10-9,10l-2-1c-1,0-2,1.1-2,2.2c0,3.3,1,7.6,3.8,7.8l3.2,8l5.1,4c0.6,0.6,1.4,1,2.2,1H55
			v-29L48,41C48,41,49.5,38.9,51,36z"/>
		<g>
			<path fill="#2C0900" d="M52,47c0-1.1-0.9-2-2-2c0,0,0,0,0,0c0,0,0,0,0,0.1c0,1.1-0.9,2-2,2c0,1.1,0.9,1.9,2,1.9
				C51.1,49,52,48.1,52,47z"/>
		</g>
		<g>
			<path fill="#2C0900" d="M62,47c0-1.1-0.9-2-2-2c0,0,0,0,0,0c0,0,0,0,0,0.1c0,1.1-0.9,2-2,2c0,1.1,0.9,1.9,2,1.9
				C61.1,49,62,48.1,62,47z"/>
		</g>
		<g>
			<path fill="#DE5735" d="M50,58h10c0,0,0,3-5,3S50,58,50,58z"/>
		</g>
		<g>
			<path fill="#7A1C05" d="M55,26.4c-8.3,0-15,6.4-15,15V45l2,1c0,0,1.8-10,9-10c-1.5,2.9-3,5-3,5l17-5l3,10l2-1v-3.6
				C70,32.8,63.3,26.4,55,26.4z"/>
		</g>
		<path fill="#99412B" d="M40,41.4V45l2,1c0,0,1.8-10,9-10c-1.5,2.9-3,5-3,5l7-2.1V26.4C46.7,26.4,40,32.8,40,41.4z"/>
	</g>
</g>
<g id="Yellow" display="none">
	<g display="inline">
		<g>
			<g>
				<polygon fill="#FFFFFF" points="67,68 65,67 45,67 43,68 55,87 				"/>
			</g>
			<path fill="#FFEBB8" d="M57.7,68H55h-2.7c-0.9,0-1.7-0.4-2.2-1L45,63v8c0,0,2,4,10,4s10-4,10-4v-8l-5.1,4
				C59.3,67.6,58.5,68,57.7,68z"/>
			<path fill="#FFF4D1" d="M50.1,67L45,63v8c0,0,2,4,10,4v-7h-2.7C51.5,68,50.7,67.6,50.1,67z"/>
			<g>
				<polygon fill="#FF8000" points="59,87 56.2,76.8 58,75 55,72 52,75 53.8,76.8 51,87 				"/>
			</g>
			<g>
				<polygon fill="#FF9D00" points="55,87 55,72 55,72 52,75 53.8,76.8 51,87 				"/>
			</g>
			<g>
				<path fill="#FFFFFF" d="M23,87l4-11c0.6-1.3,1.7-2.4,3-3l13-5l12,19H23z"/>
			</g>
			<g>
				<path fill="#FFFFFF" d="M87,87l-4-11c-0.6-1.3-1.7-2.4-3-3l-13-5L55,87H87z"/>
			</g>
			<g>
				<polygon fill="#FFFFFF" points="67,68.1 67,68 65,67 55,72 60.8,77.8 				"/>
			</g>
			<g>
				<polygon fill="#FFFFFF" points="43,68.1 43,68 45,67 55,72 49.2,77.8 				"/>
			</g>
			<g>
				<polygon fill="#FFF4D1" points="55,87 45,66 41,68 39,79 46,80 45,87 				"/>
			</g>
			<g>
				<polygon fill="#FFF4D1" points="55,87 65,66 69,68 71,79 64,80 65,87 				"/>
			</g>
			<g>
				<g>
					<path fill="#4C2720" d="M39,64c-3.4,0-7,2.6-7,7v4.1c-1.7,0.4-3,2-3,3.9c0,2.2,1.8,4,4,4s4-1.8,4-4c0-1.9-1.3-3.4-3-3.9V71
						c0-3.4,2.9-5,5-5h6v-2H39z"/>
				</g>
				<g>
					<g>
						<circle fill="#AB6C24" cx="33" cy="79" r="2"/>
					</g>
				</g>
			</g>
			<g>
				<g>
					<g>
						<g>
							<path fill="#AB6C24" d="M73,85c0,0.6-0.4,1-1,1c-0.5,0-1-0.4-1-1v-4h1c0.6,0,1,0.5,1,1V85z"/>
						</g>
					</g>
				</g>
				<g>
					<g>
						<g>
							<path fill="#AB6C24" d="M76,85c0,0.6,0.5,1,1,1c0.6,0,1-0.4,1-1v-4h-1c-0.5,0-1,0.5-1,1V85z"/>
						</g>
					</g>
				</g>
				<g>
					<path fill="#4C2720" d="M76,70L76,70c-0.6-3.8-3.8-6-7-6h-4v2h4c1.9,0,4.4,1.3,4.9,4h-0.7c-2.3,0-4.2,1.9-4.2,4.2V82
						c0,1.3,0.8,2.4,2,2.8V82v-7.8c0-1.2,1-2.2,2.2-2.2H76c1.1,0,2,0.9,2,2v8v2.8c1.2-0.4,2-1.5,2-2.8v-8C80,71.8,78.2,70,76,70z"/>
				</g>
			</g>
		</g>
		<path fill="#FFF4D1" d="M70,45l-2,1l-3-10l-17,5c0,0,1.5-2.1,3-5c-7.2,0-9,10-9,10l-1-0.5V53l4,10l5.1,4c0.6,0.6,1.4,1,2.2,1H55
			h2.7c0.9,0,1.7-0.4,2.2-1l5.1-4l3.2-8c2.8-0.2,3.8-4.5,3.8-7.8C72,46.1,71,45,70,45z"/>
		<path fill="#FFFFFF" d="M51,36c-7.2,0-9,10-9,10l-2-1c-1,0-2,1.1-2,2.2c0,3.3,1,7.6,3.8,7.8l3.2,8l5.1,4c0.6,0.6,1.4,1,2.2,1H55
			v-29L48,41C48,41,49.5,38.9,51,36z"/>
		<g>
			<path fill="#4C2720" d="M52,47c0-1.1-0.9-2-2-2c0,0,0,0,0,0c0,0,0,0,0,0.1c0,1.1-0.9,2-2,2c0,1.1,0.9,1.9,2,1.9
				C51.1,49,52,48.1,52,47z"/>
		</g>
		<g>
			<path fill="#4C2720" d="M62,47c0-1.1-0.9-2-2-2c0,0,0,0,0,0c0,0,0,0,0,0.1c0,1.1-0.9,2-2,2c0,1.1,0.9,1.9,2,1.9
				C61.1,49,62,48.1,62,47z"/>
		</g>
		<g>
			<path fill="#F7B90C" d="M50,58h10c0,0,0,3-5,3S50,58,50,58z"/>
		</g>
		<g>
			<path fill="#804B1C" d="M55,26.4c-8.3,0-15,6.4-15,15V45l2,1c0,0,1.8-10,9-10c-1.5,2.9-3,5-3,5l17-5l3,10l2-1v-3.6
				C70,32.8,63.3,26.4,55,26.4z"/>
		</g>
		<path fill="#AB6C24" d="M40,41.4V45l2,1c0,0,1.8-10,9-10c-1.5,2.9-3,5-3,5l7-2.1V26.4C46.7,26.4,40,32.8,40,41.4z"/>
	</g>
</g>
<g id="R-Yellow" display="none">
	<g display="inline">
		<circle fill="#FED600" cx="55" cy="55" r="55"/>
	</g>
	<g display="inline">
		<g>
			<g>
				<polygon fill="#FFFFFF" points="67,68 65,67 45,67 43,68 55,87 				"/>
			</g>
			<path fill="#FFEBB8" d="M57.7,68H55h-2.7c-0.9,0-1.7-0.4-2.2-1L45,63v8c0,0,2,4,10,4s10-4,10-4v-8l-5.1,4
				C59.3,67.6,58.5,68,57.7,68z"/>
			<path fill="#FFF4D1" d="M50.1,67L45,63v8c0,0,2,4,10,4v-7h-2.7C51.5,68,50.7,67.6,50.1,67z"/>
			<g>
				<polygon fill="#FF8000" points="59,87 56.2,76.8 58,75 55,72 52,75 53.8,76.8 51,87 				"/>
			</g>
			<g>
				<polygon fill="#FF9D00" points="55,87 55,72 55,72 52,75 53.8,76.8 51,87 				"/>
			</g>
			<g>
				<path fill="#FFFFFF" d="M23,87l4-11c0.6-1.3,1.7-2.4,3-3l13-5l12,19H23z"/>
			</g>
			<g>
				<path fill="#FFFFFF" d="M87,87l-4-11c-0.6-1.3-1.7-2.4-3-3l-13-5L55,87H87z"/>
			</g>
			<g>
				<polygon fill="#FFFFFF" points="67,68.1 67,68 65,67 55,72 60.8,77.8 				"/>
			</g>
			<g>
				<polygon fill="#FFFFFF" points="43,68.1 43,68 45,67 55,72 49.2,77.8 				"/>
			</g>
			<g>
				<polygon fill="#FFF4D1" points="55,87 45,66 41,68 39,79 46,80 45,87 				"/>
			</g>
			<g>
				<polygon fill="#FFF4D1" points="55,87 65,66 69,68 71,79 64,80 65,87 				"/>
			</g>
			<g>
				<g>
					<path fill="#4C2720" d="M39,64c-3.4,0-7,2.6-7,7v4.1c-1.7,0.4-3,2-3,3.9c0,2.2,1.8,4,4,4s4-1.8,4-4c0-1.9-1.3-3.4-3-3.9V71
						c0-3.4,2.9-5,5-5h6v-2H39z"/>
				</g>
				<g>
					<g>
						<circle fill="#AB6C24" cx="33" cy="79" r="2"/>
					</g>
				</g>
			</g>
			<g>
				<g>
					<g>
						<g>
							<path fill="#AB6C24" d="M73,85c0,0.6-0.4,1-1,1c-0.5,0-1-0.4-1-1v-4h1c0.6,0,1,0.5,1,1V85z"/>
						</g>
					</g>
				</g>
				<g>
					<g>
						<g>
							<path fill="#AB6C24" d="M76,85c0,0.6,0.5,1,1,1c0.6,0,1-0.4,1-1v-4h-1c-0.5,0-1,0.5-1,1V85z"/>
						</g>
					</g>
				</g>
				<g>
					<path fill="#4C2720" d="M76,70L76,70c-0.6-3.8-3.8-6-7-6h-4v2h4c1.9,0,4.4,1.3,4.9,4h-0.7c-2.3,0-4.2,1.9-4.2,4.2V82
						c0,1.3,0.8,2.4,2,2.8V82v-7.8c0-1.2,1-2.2,2.2-2.2H76c1.1,0,2,0.9,2,2v8v2.8c1.2-0.4,2-1.5,2-2.8v-8C80,71.8,78.2,70,76,70z"/>
				</g>
			</g>
		</g>
		<path fill="#FFF4D1" d="M70,45l-2,1l-3-10l-17,5c0,0,1.5-2.1,3-5c-7.2,0-9,10-9,10l-1-0.5V53l4,10l5.1,4c0.6,0.6,1.4,1,2.2,1H55
			h2.7c0.9,0,1.7-0.4,2.2-1l5.1-4l3.2-8c2.8-0.2,3.8-4.5,3.8-7.8C72,46.1,71,45,70,45z"/>
		<path fill="#FFFFFF" d="M51,36c-7.2,0-9,10-9,10l-2-1c-1,0-2,1.1-2,2.2c0,3.3,1,7.6,3.8,7.8l3.2,8l5.1,4c0.6,0.6,1.4,1,2.2,1H55
			v-29L48,41C48,41,49.5,38.9,51,36z"/>
		<g>
			<path fill="#4C2720" d="M52,47c0-1.1-0.9-2-2-2c0,0,0,0,0,0c0,0,0,0,0,0.1c0,1.1-0.9,2-2,2c0,1.1,0.9,1.9,2,1.9
				C51.1,49,52,48.1,52,47z"/>
		</g>
		<g>
			<path fill="#4C2720" d="M62,47c0-1.1-0.9-2-2-2c0,0,0,0,0,0c0,0,0,0,0,0.1c0,1.1-0.9,2-2,2c0,1.1,0.9,1.9,2,1.9
				C61.1,49,62,48.1,62,47z"/>
		</g>
		<g>
			<path fill="#F7B90C" d="M50,58h10c0,0,0,3-5,3S50,58,50,58z"/>
		</g>
		<g>
			<path fill="#804B1C" d="M55,26.4c-8.3,0-15,6.4-15,15V45l2,1c0,0,1.8-10,9-10c-1.5,2.9-3,5-3,5l17-5l3,10l2-1v-3.6
				C70,32.8,63.3,26.4,55,26.4z"/>
		</g>
		<path fill="#AB6C24" d="M40,41.4V45l2,1c0,0,1.8-10,9-10c-1.5,2.9-3,5-3,5l7-2.1V26.4C46.7,26.4,40,32.8,40,41.4z"/>
	</g>
</g>
</svg>
