<?xml version="1.0" encoding="utf-8"?>
<!-- Generator: Adobe Illustrator 18.0.0, SVG Export Plug-In . SVG Version: 6.00 Build 0)  -->
<!DOCTYPE svg PUBLIC "-//W3C//DTD SVG 1.1//EN" "http://www.w3.org/Graphics/SVG/1.1/DTD/svg11.dtd">
<svg version="1.1" id="Calque_1" xmlns="http://www.w3.org/2000/svg" xmlns:xlink="http://www.w3.org/1999/xlink" x="0px" y="0px"
	 viewBox="0 0 110 110" enable-background="new 0 0 110 110" xml:space="preserve">
<g id="R-Multicolor">
	<g>
		<circle fill="#26B35E" cx="55" cy="55" r="55"/>
	</g>
	<g>
		<g>
			<g>
				<path fill="#212121" d="M72.2,46c-1.2-0.7-2.3-1.7-3-2.9c-2.5,3.9-2.3,10.2-2.2,28.9c0,2.6-1,5.1-2.9,7
					c-1.8,1.8-4.2,2.9-7.2,2.9c-5.4,0-9.9-4.4-9.9-9.9V61.9c7.2-1,9.2-6.8,10.5-13.5c0.2-1-0.4-2.1-1.5-2.3l0,0
					c-1.1-0.3-2.2,0.4-2.4,1.5C52.4,53.6,51.2,58,45,58c-6.2,0-7.3-4.4-8.6-10.5c-0.2-1.1-1.3-1.8-2.4-1.5l0,0
					c-1,0.3-1.7,1.3-1.5,2.3c1,4.9,2.4,12.5,10.5,13.5v10.3C43,79.8,49.2,86,56.9,86c4.1,0,7.5-1.5,10.1-4.1c2.6-2.6,4.1-6.1,4-9.9
					C70.9,55,70.8,49.1,72.2,46z"/>
			</g>
		</g>
		<g>
			<g>
				<circle fill="#E0E0E0" cx="76" cy="39" r="8"/>
			</g>
		</g>
		<g>
			<g>
				<path fill="#FFFFFF" d="M81.7,33.4l-3.8,3.8c-0.5-0.5-1.2-0.8-1.9-0.8c-1.5,0-2.7,1.2-2.7,2.7c0,0.7,0.3,1.4,0.8,1.9l-3.8,3.8
					C68.9,43.2,68,41.2,68,39c0-4.4,3.6-8,8-8C78.2,31,80.2,31.9,81.7,33.4z"/>
			</g>
		</g>
		<g>
			<g>
				<circle fill="#212121" cx="76" cy="39" r="2.7"/>
			</g>
		</g>
		<g>
			<g>
				<path fill="#F0F0F0" d="M36,27.6v-2.3c-0.9,0.3-1.6,0.9-2.3,1.7c-3.7,4.7-1.4,16.7-0.8,19.6c0.3-0.3,0.6-0.5,1-0.6l0,0
					c0.3-0.1,0.6-0.1,0.9,0c-0.9-4.4-2.3-14.2,0.5-17.7C35.5,28,35.7,27.8,36,27.6z"/>
			</g>
		</g>
		<g>
			<g>
				<path fill="#212121" d="M36,28c2.5,2,5,0.2,5-1.9c0-2.5-2.5-4-5-2.1V28z"/>
			</g>
		</g>
		<g>
			<g>
				<path fill="#F0F0F0" d="M56.3,27c-0.7-0.8-1.4-1.4-2.3-1.7v2.3c0.3,0.2,0.5,0.4,0.7,0.7c2.8,3.5,1.4,13.3,0.4,17.7
					c0.3-0.1,0.6-0.1,0.9,0l0,0c0.4,0.1,0.7,0.3,1,0.6C57.7,43.8,60,31.8,56.3,27z"/>
			</g>
		</g>
		<g>
			<g>
				<path fill="#212121" d="M54,28c-2.5,2-5,0.2-5-1.9c0-2.5,2.5-4,5-2.1V28z"/>
			</g>
		</g>
	</g>
</g>
<g id="Multicolor" display="none">
	<g display="inline">
		<g>
			<g>
				<path fill="#212121" d="M72.2,46c-1.2-0.7-2.3-1.7-3-2.9c-2.5,3.9-2.3,10.2-2.2,28.9c0,2.6-1,5.1-2.9,7
					c-1.8,1.8-4.2,2.9-7.2,2.9c-5.4,0-9.9-4.4-9.9-9.9V61.9c7.2-1,9.2-6.8,10.5-13.5c0.2-1-0.4-2.1-1.5-2.3l0,0
					c-1.1-0.3-2.2,0.4-2.4,1.5C52.4,53.6,51.2,58,45,58c-6.2,0-7.3-4.4-8.6-10.5c-0.2-1.1-1.3-1.8-2.4-1.5l0,0
					c-1,0.3-1.7,1.3-1.5,2.3c1,4.9,2.4,12.5,10.5,13.5v10.3C43,79.8,49.2,86,56.9,86c4.1,0,7.5-1.5,10.1-4.1c2.6-2.6,4.1-6.1,4-9.9
					C70.9,55,70.8,49.1,72.2,46z"/>
			</g>
		</g>
		<g>
			<g>
				<circle fill="#E0E0E0" cx="76" cy="39" r="8"/>
			</g>
		</g>
		<g>
			<g>
				<path fill="#FFFFFF" d="M81.7,33.4l-3.8,3.8c-0.5-0.5-1.2-0.8-1.9-0.8c-1.5,0-2.7,1.2-2.7,2.7c0,0.7,0.3,1.4,0.8,1.9l-3.8,3.8
					C68.9,43.2,68,41.2,68,39c0-4.4,3.6-8,8-8C78.2,31,80.2,31.9,81.7,33.4z"/>
			</g>
		</g>
		<g>
			<g>
				<circle fill="#212121" cx="76" cy="39" r="2.7"/>
			</g>
		</g>
		<g>
			<g>
				<path fill="#F0F0F0" d="M36,27.6v-2.3c-0.9,0.3-1.6,0.9-2.3,1.7c-3.7,4.7-1.4,16.7-0.8,19.6c0.3-0.3,0.6-0.5,1-0.6l0,0
					c0.3-0.1,0.6-0.1,0.9,0c-0.9-4.4-2.3-14.2,0.5-17.7C35.5,28,35.7,27.8,36,27.6z"/>
			</g>
		</g>
		<g>
			<g>
				<path fill="#212121" d="M36,28c2.5,2,5,0.2,5-1.9c0-2.5-2.5-4-5-2.1V28z"/>
			</g>
		</g>
		<g>
			<g>
				<path fill="#F0F0F0" d="M56.3,27c-0.7-0.8-1.4-1.4-2.3-1.7v2.3c0.3,0.2,0.5,0.4,0.7,0.7c2.8,3.5,1.4,13.3,0.4,17.7
					c0.3-0.1,0.6-0.1,0.9,0l0,0c0.4,0.1,0.7,0.3,1,0.6C57.7,43.8,60,31.8,56.3,27z"/>
			</g>
		</g>
		<g>
			<g>
				<path fill="#212121" d="M54,28c-2.5,2-5,0.2-5-1.9c0-2.5,2.5-4,5-2.1V28z"/>
			</g>
		</g>
	</g>
</g>
<g id="Blue" display="none">
	<g display="inline">
		<g>
			<path fill="#1A3B7E" d="M72,46c-1.2-0.7-2.3-1.7-3-2.9c-2.5,3.9-2.3,10.2-2.2,28.9c0,2.6-1,5.1-2.9,7C62,80.9,59.6,82,56.6,82
				c-5.4,0-9.9-4.4-9.9-9.9V61.9c7.2-1,9.2-6.8,10.5-13.5c0.2-1-0.4-2.1-1.5-2.3l0,0c-1.1-0.3-2.2,0.4-2.4,1.5
				C52.2,53.6,50.9,58,44.8,58c-6.2,0-7.3-4.4-8.6-10.5c-0.2-1.1-1.3-1.8-2.4-1.5l0,0c-1,0.3-1.7,1.3-1.5,2.3
				c1,4.9,2.4,12.5,10.5,13.5v10.3C42.8,79.8,49,86,56.6,86c4.1,0,7.5-1.5,10.1-4.1c2.6-2.6,4.1-6.1,4-9.9C70.6,55,70.6,49.1,72,46z
				"/>
		</g>
		<g>
			<circle fill="#E8EAF6" cx="75.8" cy="39" r="8"/>
		</g>
		<g>
			<path fill="#FFFFFF" d="M81.4,33.4l-3.8,3.8c-0.5-0.5-1.2-0.8-1.9-0.8c-1.5,0-2.7,1.2-2.7,2.7c0,0.7,0.3,1.4,0.8,1.9l-3.8,3.8
				c-1.5-1.5-2.4-3.5-2.4-5.7c0-4.4,3.6-8,8-8C78,31,80,31.9,81.4,33.4z"/>
		</g>
		<g>
			<circle fill="#1A3B7E" cx="75.8" cy="39" r="2.7"/>
		</g>
		<g>
			<path fill="#E8EAF6" d="M35.8,27.6v-2.3c-0.9,0.3-1.6,0.9-2.3,1.7c-3.7,4.7-1.4,16.7-0.8,19.6c0.3-0.3,0.6-0.5,1-0.6l0,0
				c0.3-0.1,0.6-0.1,0.9,0c-0.9-4.4-2.3-14.2,0.5-17.7C35.2,28,35.5,27.8,35.8,27.6z"/>
		</g>
		<g>
			<path fill="#1A3B7E" d="M35.8,28c2.5,2,5,0.2,5-1.9c0-2.5-2.5-4-5-2.1V28z"/>
		</g>
		<g>
			<path fill="#E8EAF6" d="M56.1,27c-0.7-0.8-1.4-1.4-2.3-1.7v2.3c0.3,0.2,0.5,0.4,0.7,0.7c2.8,3.5,1.4,13.3,0.4,17.7
				c0.3-0.1,0.6-0.1,0.9,0l0,0c0.4,0.1,0.7,0.3,1,0.6C57.5,43.8,59.8,31.8,56.1,27z"/>
		</g>
		<g>
			<path fill="#1A3B7E" d="M53.8,28c-2.5,2-5,0.2-5-1.9c0-2.5,2.5-4,5-2.1V28z"/>
		</g>
	</g>
</g>
<g id="R-Blue" display="none">
	<circle display="inline" fill="#00B0FF" cx="54.8" cy="55" r="55"/>
	<g display="inline">
		<g>
			<path fill="#1A3B7E" d="M72,46c-1.2-0.7-2.3-1.7-3-2.9c-2.5,3.9-2.3,10.2-2.2,28.9c0,2.6-1,5.1-2.9,7C62,80.9,59.6,82,56.6,82
				c-5.4,0-9.9-4.4-9.9-9.9V61.9c7.2-1,9.2-6.8,10.5-13.5c0.2-1-0.4-2.1-1.5-2.3l0,0c-1.1-0.3-2.2,0.4-2.4,1.5
				C52.2,53.6,50.9,58,44.8,58c-6.2,0-7.3-4.4-8.6-10.5c-0.2-1.1-1.3-1.8-2.4-1.5l0,0c-1,0.3-1.7,1.3-1.5,2.3
				c1,4.9,2.4,12.5,10.5,13.5v10.3C42.8,79.8,49,86,56.6,86c4.1,0,7.5-1.5,10.1-4.1c2.6-2.6,4.1-6.1,4-9.9C70.6,55,70.6,49.1,72,46z
				"/>
		</g>
		<g>
			<circle fill="#E8EAF6" cx="75.8" cy="39" r="8"/>
		</g>
		<g>
			<path fill="#FFFFFF" d="M81.4,33.4l-3.8,3.8c-0.5-0.5-1.2-0.8-1.9-0.8c-1.5,0-2.7,1.2-2.7,2.7c0,0.7,0.3,1.4,0.8,1.9l-3.8,3.8
				c-1.5-1.5-2.4-3.5-2.4-5.7c0-4.4,3.6-8,8-8C78,31,80,31.9,81.4,33.4z"/>
		</g>
		<g>
			<circle fill="#1A3B7E" cx="75.8" cy="39" r="2.7"/>
		</g>
		<g>
			<path fill="#E8EAF6" d="M35.8,27.6v-2.3c-0.9,0.3-1.6,0.9-2.3,1.7c-3.7,4.7-1.4,16.7-0.8,19.6c0.3-0.3,0.6-0.5,1-0.6l0,0
				c0.3-0.1,0.6-0.1,0.9,0c-0.9-4.4-2.3-14.2,0.5-17.7C35.2,28,35.5,27.8,35.8,27.6z"/>
		</g>
		<g>
			<path fill="#1A3B7E" d="M35.8,28c2.5,2,5,0.2,5-1.9c0-2.5-2.5-4-5-2.1V28z"/>
		</g>
		<g>
			<path fill="#E8EAF6" d="M56.1,27c-0.7-0.8-1.4-1.4-2.3-1.7v2.3c0.3,0.2,0.5,0.4,0.7,0.7c2.8,3.5,1.4,13.3,0.4,17.7
				c0.3-0.1,0.6-0.1,0.9,0l0,0c0.4,0.1,0.7,0.3,1,0.6C57.5,43.8,59.8,31.8,56.1,27z"/>
		</g>
		<g>
			<path fill="#1A3B7E" d="M53.8,28c-2.5,2-5,0.2-5-1.9c0-2.5,2.5-4,5-2.1V28z"/>
		</g>
	</g>
</g>
<g id="Green" display="none">
	<g display="inline">
		<g>
			<path fill="#003B15" d="M72,46c-1.2-0.7-2.3-1.7-3-2.9c-2.5,3.9-2.3,10.2-2.2,28.9c0,2.6-1,5.1-2.9,7C62,80.9,59.6,82,56.6,82
				c-5.4,0-9.9-4.4-9.9-9.9V61.9c7.2-1,9.2-6.8,10.5-13.5c0.2-1-0.4-2.1-1.5-2.3l0,0c-1.1-0.3-2.2,0.4-2.4,1.5
				C52.2,53.6,50.9,58,44.8,58c-6.2,0-7.3-4.4-8.6-10.5c-0.2-1.1-1.3-1.8-2.4-1.5l0,0c-1,0.3-1.7,1.3-1.5,2.3
				c1,4.9,2.4,12.5,10.5,13.5v10.3C42.8,79.8,49,86,56.6,86c4.1,0,7.5-1.5,10.1-4.1c2.6-2.6,4.1-6.1,4-9.9C70.6,55,70.6,49.1,72,46z
				"/>
		</g>
		<g>
			<circle fill="#ECF5E1" cx="75.8" cy="39" r="8"/>
		</g>
		<g>
			<path fill="#FFFFFF" d="M81.4,33.4l-3.8,3.8c-0.5-0.5-1.2-0.8-1.9-0.8c-1.5,0-2.7,1.2-2.7,2.7c0,0.7,0.3,1.4,0.8,1.9l-3.8,3.8
				c-1.5-1.5-2.4-3.5-2.4-5.7c0-4.4,3.6-8,8-8C78,31,80,31.9,81.4,33.4z"/>
		</g>
		<g>
			<circle fill="#003B15" cx="75.8" cy="39" r="2.7"/>
		</g>
		<g>
			<path fill="#ECF5E1" d="M35.8,27.6v-2.3c-0.9,0.3-1.6,0.9-2.3,1.7c-3.7,4.7-1.4,16.7-0.8,19.6c0.3-0.3,0.6-0.5,1-0.6l0,0
				c0.3-0.1,0.6-0.1,0.9,0c-0.9-4.4-2.3-14.2,0.5-17.7C35.2,28,35.5,27.8,35.8,27.6z"/>
		</g>
		<g>
			<path fill="#003B15" d="M35.8,28c2.5,2,5,0.2,5-1.9c0-2.5-2.5-4-5-2.1V28z"/>
		</g>
		<g>
			<path fill="#ECF5E1" d="M56.1,27c-0.7-0.8-1.4-1.4-2.3-1.7v2.3c0.3,0.2,0.5,0.4,0.7,0.7c2.8,3.5,1.4,13.3,0.4,17.7
				c0.3-0.1,0.6-0.1,0.9,0l0,0c0.4,0.1,0.7,0.3,1,0.6C57.5,43.8,59.8,31.8,56.1,27z"/>
		</g>
		<g>
			<path fill="#003B15" d="M53.8,28c-2.5,2-5,0.2-5-1.9c0-2.5,2.5-4,5-2.1V28z"/>
		</g>
	</g>
</g>
<g id="R-Green" display="none">
	<circle display="inline" fill="#64DD17" cx="54.8" cy="55" r="55"/>
	<g display="inline">
		<g>
			<path fill="#003B15" d="M72,46c-1.2-0.7-2.3-1.7-3-2.9c-2.5,3.9-2.3,10.2-2.2,28.9c0,2.6-1,5.1-2.9,7C62,80.9,59.6,82,56.6,82
				c-5.4,0-9.9-4.4-9.9-9.9V61.9c7.2-1,9.2-6.8,10.5-13.5c0.2-1-0.4-2.1-1.5-2.3l0,0c-1.1-0.3-2.2,0.4-2.4,1.5
				C52.2,53.6,50.9,58,44.8,58c-6.2,0-7.3-4.4-8.6-10.5c-0.2-1.1-1.3-1.8-2.4-1.5l0,0c-1,0.3-1.7,1.3-1.5,2.3
				c1,4.9,2.4,12.5,10.5,13.5v10.3C42.8,79.8,49,86,56.6,86c4.1,0,7.5-1.5,10.1-4.1c2.6-2.6,4.1-6.1,4-9.9C70.6,55,70.6,49.1,72,46z
				"/>
		</g>
		<g>
			<circle fill="#ECF5E1" cx="75.8" cy="39" r="8"/>
		</g>
		<g>
			<path fill="#FFFFFF" d="M81.4,33.4l-3.8,3.8c-0.5-0.5-1.2-0.8-1.9-0.8c-1.5,0-2.7,1.2-2.7,2.7c0,0.7,0.3,1.4,0.8,1.9l-3.8,3.8
				c-1.5-1.5-2.4-3.5-2.4-5.7c0-4.4,3.6-8,8-8C78,31,80,31.9,81.4,33.4z"/>
		</g>
		<g>
			<circle fill="#003B15" cx="75.8" cy="39" r="2.7"/>
		</g>
		<g>
			<path fill="#ECF5E1" d="M35.8,27.6v-2.3c-0.9,0.3-1.6,0.9-2.3,1.7c-3.7,4.7-1.4,16.7-0.8,19.6c0.3-0.3,0.6-0.5,1-0.6l0,0
				c0.3-0.1,0.6-0.1,0.9,0c-0.9-4.4-2.3-14.2,0.5-17.7C35.2,28,35.5,27.8,35.8,27.6z"/>
		</g>
		<g>
			<path fill="#003B15" d="M35.8,28c2.5,2,5,0.2,5-1.9c0-2.5-2.5-4-5-2.1V28z"/>
		</g>
		<g>
			<path fill="#ECF5E1" d="M56.1,27c-0.7-0.8-1.4-1.4-2.3-1.7v2.3c0.3,0.2,0.5,0.4,0.7,0.7c2.8,3.5,1.4,13.3,0.4,17.7
				c0.3-0.1,0.6-0.1,0.9,0l0,0c0.4,0.1,0.7,0.3,1,0.6C57.5,43.8,59.8,31.8,56.1,27z"/>
		</g>
		<g>
			<path fill="#003B15" d="M53.8,28c-2.5,2-5,0.2-5-1.9c0-2.5,2.5-4,5-2.1V28z"/>
		</g>
	</g>
</g>
<g id="Red" display="none">
	<g display="inline">
		<g>
			<path fill="#2C0900" d="M72,46c-1.2-0.7-2.3-1.7-3-2.9c-2.5,3.9-2.3,10.2-2.2,28.9c0,2.6-1,5.1-2.9,7C62,80.9,59.6,82,56.6,82
				c-5.4,0-9.9-4.4-9.9-9.9V61.9c7.2-1,9.2-6.8,10.5-13.5c0.2-1-0.4-2.1-1.5-2.3l0,0c-1.1-0.3-2.2,0.4-2.4,1.5
				C52.2,53.6,50.9,58,44.8,58c-6.2,0-7.3-4.4-8.6-10.5c-0.2-1.1-1.3-1.8-2.4-1.5l0,0c-1,0.3-1.7,1.3-1.5,2.3
				c1,4.9,2.4,12.5,10.5,13.5v10.3C42.8,79.8,49,86,56.6,86c4.1,0,7.5-1.5,10.1-4.1c2.6-2.6,4.1-6.1,4-9.9C70.6,55,70.6,49.1,72,46z
				"/>
		</g>
		<g>
			<circle fill="#FFE4DE" cx="75.8" cy="39" r="8"/>
		</g>
		<g>
			<path fill="#FFFFFF" d="M81.4,33.4l-3.8,3.8c-0.5-0.5-1.2-0.8-1.9-0.8c-1.5,0-2.7,1.2-2.7,2.7c0,0.7,0.3,1.4,0.8,1.9l-3.8,3.8
				c-1.5-1.5-2.4-3.5-2.4-5.7c0-4.4,3.6-8,8-8C78,31,80,31.9,81.4,33.4z"/>
		</g>
		<g>
			<circle fill="#2C0900" cx="75.8" cy="39" r="2.7"/>
		</g>
		<g>
			<path fill="#FFE4DE" d="M35.8,27.6v-2.3c-0.9,0.3-1.6,0.9-2.3,1.7c-3.7,4.7-1.4,16.7-0.8,19.6c0.3-0.3,0.6-0.5,1-0.6l0,0
				c0.3-0.1,0.6-0.1,0.9,0c-0.9-4.4-2.3-14.2,0.5-17.7C35.2,28,35.5,27.8,35.8,27.6z"/>
		</g>
		<g>
			<path fill="#2C0900" d="M35.8,28c2.5,2,5,0.2,5-1.9c0-2.5-2.5-4-5-2.1V28z"/>
		</g>
		<g>
			<path fill="#FFE4DE" d="M56.1,27c-0.7-0.8-1.4-1.4-2.3-1.7v2.3c0.3,0.2,0.5,0.4,0.7,0.7c2.8,3.5,1.4,13.3,0.4,17.7
				c0.3-0.1,0.6-0.1,0.9,0l0,0c0.4,0.1,0.7,0.3,1,0.6C57.5,43.8,59.8,31.8,56.1,27z"/>
		</g>
		<g>
			<path fill="#2C0900" d="M53.8,28c-2.5,2-5,0.2-5-1.9c0-2.5,2.5-4,5-2.1V28z"/>
		</g>
	</g>
</g>
<g id="R-Red" display="none">
	<circle display="inline" fill="#FF5722" cx="54.8" cy="55" r="55"/>
	<g display="inline">
		<g>
			<path fill="#2C0900" d="M72,46c-1.2-0.7-2.3-1.7-3-2.9c-2.5,3.9-2.3,10.2-2.2,28.9c0,2.6-1,5.1-2.9,7C62,80.9,59.6,82,56.6,82
				c-5.4,0-9.9-4.4-9.9-9.9V61.9c7.2-1,9.2-6.8,10.5-13.5c0.2-1-0.4-2.1-1.5-2.3l0,0c-1.1-0.3-2.2,0.4-2.4,1.5
				C52.2,53.6,50.9,58,44.8,58c-6.2,0-7.3-4.4-8.6-10.5c-0.2-1.1-1.3-1.8-2.4-1.5l0,0c-1,0.3-1.7,1.3-1.5,2.3
				c1,4.9,2.4,12.5,10.5,13.5v10.3C42.8,79.8,49,86,56.6,86c4.1,0,7.5-1.5,10.1-4.1c2.6-2.6,4.1-6.1,4-9.9C70.6,55,70.6,49.1,72,46z
				"/>
		</g>
		<g>
			<circle fill="#FFE4DE" cx="75.8" cy="39" r="8"/>
		</g>
		<g>
			<path fill="#FFFFFF" d="M81.4,33.4l-3.8,3.8c-0.5-0.5-1.2-0.8-1.9-0.8c-1.5,0-2.7,1.2-2.7,2.7c0,0.7,0.3,1.4,0.8,1.9l-3.8,3.8
				c-1.5-1.5-2.4-3.5-2.4-5.7c0-4.4,3.6-8,8-8C78,31,80,31.9,81.4,33.4z"/>
		</g>
		<g>
			<circle fill="#2C0900" cx="75.8" cy="39" r="2.7"/>
		</g>
		<g>
			<path fill="#FFE4DE" d="M35.8,27.6v-2.3c-0.9,0.3-1.6,0.9-2.3,1.7c-3.7,4.7-1.4,16.7-0.8,19.6c0.3-0.3,0.6-0.5,1-0.6l0,0
				c0.3-0.1,0.6-0.1,0.9,0c-0.9-4.4-2.3-14.2,0.5-17.7C35.2,28,35.5,27.8,35.8,27.6z"/>
		</g>
		<g>
			<path fill="#2C0900" d="M35.8,28c2.5,2,5,0.2,5-1.9c0-2.5-2.5-4-5-2.1V28z"/>
		</g>
		<g>
			<path fill="#FFE4DE" d="M56.1,27c-0.7-0.8-1.4-1.4-2.3-1.7v2.3c0.3,0.2,0.5,0.4,0.7,0.7c2.8,3.5,1.4,13.3,0.4,17.7
				c0.3-0.1,0.6-0.1,0.9,0l0,0c0.4,0.1,0.7,0.3,1,0.6C57.5,43.8,59.8,31.8,56.1,27z"/>
		</g>
		<g>
			<path fill="#2C0900" d="M53.8,28c-2.5,2-5,0.2-5-1.9c0-2.5,2.5-4,5-2.1V28z"/>
		</g>
	</g>
</g>
<g id="Yellow" display="none">
	<g display="inline">
		<g>
			<path fill="#4C2720" d="M72,46c-1.2-0.7-2.3-1.7-3-2.9c-2.5,3.9-2.3,10.2-2.2,28.9c0,2.6-1,5.1-2.9,7C62,80.9,59.6,82,56.6,82
				c-5.4,0-9.9-4.4-9.9-9.9V61.9c7.2-1,9.2-6.8,10.5-13.5c0.2-1-0.4-2.1-1.5-2.3l0,0c-1.1-0.3-2.2,0.4-2.4,1.5
				C52.2,53.6,50.9,58,44.8,58c-6.2,0-7.3-4.4-8.6-10.5c-0.2-1.1-1.3-1.8-2.4-1.5l0,0c-1,0.3-1.7,1.3-1.5,2.3
				c1,4.9,2.4,12.5,10.5,13.5v10.3C42.8,79.8,49,86,56.6,86c4.1,0,7.5-1.5,10.1-4.1c2.6-2.6,4.1-6.1,4-9.9C70.6,55,70.6,49.1,72,46z
				"/>
		</g>
		<g>
			<circle fill="#FFF4D1" cx="75.8" cy="39" r="8"/>
		</g>
		<g>
			<path fill="#FFFFFF" d="M81.4,33.4l-3.8,3.8c-0.5-0.5-1.2-0.8-1.9-0.8c-1.5,0-2.7,1.2-2.7,2.7c0,0.7,0.3,1.4,0.8,1.9l-3.8,3.8
				c-1.5-1.5-2.4-3.5-2.4-5.7c0-4.4,3.6-8,8-8C78,31,80,31.9,81.4,33.4z"/>
		</g>
		<g>
			<circle fill="#4C2720" cx="75.8" cy="39" r="2.7"/>
		</g>
		<g>
			<path fill="#FFF4D1" d="M35.8,27.6v-2.3c-0.9,0.3-1.6,0.9-2.3,1.7c-3.7,4.7-1.4,16.7-0.8,19.6c0.3-0.3,0.6-0.5,1-0.6l0,0
				c0.3-0.1,0.6-0.1,0.9,0c-0.9-4.4-2.3-14.2,0.5-17.7C35.2,28,35.5,27.8,35.8,27.6z"/>
		</g>
		<g>
			<path fill="#4C2720" d="M35.8,28c2.5,2,5,0.2,5-1.9c0-2.5-2.5-4-5-2.1V28z"/>
		</g>
		<g>
			<path fill="#FFF4D1" d="M56.1,27c-0.7-0.8-1.4-1.4-2.3-1.7v2.3c0.3,0.2,0.5,0.4,0.7,0.7c2.8,3.5,1.4,13.3,0.4,17.7
				c0.3-0.1,0.6-0.1,0.9,0l0,0c0.4,0.1,0.7,0.3,1,0.6C57.5,43.8,59.8,31.8,56.1,27z"/>
		</g>
		<g>
			<path fill="#4C2720" d="M53.8,28c-2.5,2-5,0.2-5-1.9c0-2.5,2.5-4,5-2.1V28z"/>
		</g>
	</g>
</g>
<g id="R-Yellow" display="none">
	<circle display="inline" fill="#FFD600" cx="54.8" cy="55" r="55"/>
	<g display="inline">
		<g>
			<path fill="#4C2720" d="M72,46c-1.2-0.7-2.3-1.7-3-2.9c-2.5,3.9-2.3,10.2-2.2,28.9c0,2.6-1,5.1-2.9,7C62,80.9,59.6,82,56.6,82
				c-5.4,0-9.9-4.4-9.9-9.9V61.9c7.2-1,9.2-6.8,10.5-13.5c0.2-1-0.4-2.1-1.5-2.3l0,0c-1.1-0.3-2.2,0.4-2.4,1.5
				C52.2,53.6,50.9,58,44.8,58c-6.2,0-7.3-4.4-8.6-10.5c-0.2-1.1-1.3-1.8-2.4-1.5l0,0c-1,0.3-1.7,1.3-1.5,2.3
				c1,4.9,2.4,12.5,10.5,13.5v10.3C42.8,79.8,49,86,56.6,86c4.1,0,7.5-1.5,10.1-4.1c2.6-2.6,4.1-6.1,4-9.9C70.6,55,70.6,49.1,72,46z
				"/>
		</g>
		<g>
			<circle fill="#FFF4D1" cx="75.8" cy="39" r="8"/>
		</g>
		<g>
			<path fill="#FFFFFF" d="M81.4,33.4l-3.8,3.8c-0.5-0.5-1.2-0.8-1.9-0.8c-1.5,0-2.7,1.2-2.7,2.7c0,0.7,0.3,1.4,0.8,1.9l-3.8,3.8
				c-1.5-1.5-2.4-3.5-2.4-5.7c0-4.4,3.6-8,8-8C78,31,80,31.9,81.4,33.4z"/>
		</g>
		<g>
			<circle fill="#4C2720" cx="75.8" cy="39" r="2.7"/>
		</g>
		<g>
			<path fill="#FFF4D1" d="M35.8,27.6v-2.3c-0.9,0.3-1.6,0.9-2.3,1.7c-3.7,4.7-1.4,16.7-0.8,19.6c0.3-0.3,0.6-0.5,1-0.6l0,0
				c0.3-0.1,0.6-0.1,0.9,0c-0.9-4.4-2.3-14.2,0.5-17.7C35.2,28,35.5,27.8,35.8,27.6z"/>
		</g>
		<g>
			<path fill="#4C2720" d="M35.8,28c2.5,2,5,0.2,5-1.9c0-2.5-2.5-4-5-2.1V28z"/>
		</g>
		<g>
			<path fill="#FFF4D1" d="M56.1,27c-0.7-0.8-1.4-1.4-2.3-1.7v2.3c0.3,0.2,0.5,0.4,0.7,0.7c2.8,3.5,1.4,13.3,0.4,17.7
				c0.3-0.1,0.6-0.1,0.9,0l0,0c0.4,0.1,0.7,0.3,1,0.6C57.5,43.8,59.8,31.8,56.1,27z"/>
		</g>
		<g>
			<path fill="#4C2720" d="M53.8,28c-2.5,2-5,0.2-5-1.9c0-2.5,2.5-4,5-2.1V28z"/>
		</g>
	</g>
</g>
</svg>
