<?xml version="1.0" encoding="utf-8"?>
<!-- Generator: Adobe Illustrator 18.0.0, SVG Export Plug-In . SVG Version: 6.00 Build 0)  -->
<!DOCTYPE svg PUBLIC "-//W3C//DTD SVG 1.1//EN" "http://www.w3.org/Graphics/SVG/1.1/DTD/svg11.dtd">
<svg version="1.1" id="Calque_1" xmlns="http://www.w3.org/2000/svg" xmlns:xlink="http://www.w3.org/1999/xlink" x="0px" y="0px"
	 viewBox="0 0 110 110" enable-background="new 0 0 110 110" xml:space="preserve">
<g id="R-Multicolor">
	<circle fill="#00AFC3" cx="55" cy="55" r="55"/>
	<g>
		<path fill="#FFFFFF" d="M41.1,69.4c-4.4-4.2-6.6-10.2-6-16.2c1-11,10.8-19.1,21.7-18.1l-0.4,4l12.7-6.9l-11.2-9.1l-0.4,4
			c-15.4-1.4-29,9.9-30.4,25.3c-0.8,8.5,2.3,16.8,8.4,22.7L41.1,69.4z"/>
		<path fill="#FFFFFF" d="M68.9,40.6c4.4,4.2,6.6,10.2,6,16.2c-1,11-10.8,19.1-21.7,18.1l0.4-4l-12.7,6.9l11.2,9.1l0.4-4
			c15.4,1.4,29-9.9,30.4-25.3c0.8-8.5-2.3-16.8-8.4-22.7L68.9,40.6z"/>
	</g>
</g>
<g id="Multicolor" display="none">
	<g display="inline">
		<path fill="#F0F0F0" d="M70.4,57c0-2.8-1.8-5.3-4.2-6.3c-2-4.8-5.1-6.8-9-6.8c-3.7,0-6.8,2.1-8.4,5.1c-2.5-1.1-5.3,0.7-5.4,3.4
			c-2.2,0.8-3.9,2.9-3.9,5.4c0,3.2,2.6,5.8,5.8,5.8h19.3C64.7,63.8,70.4,62.7,70.4,57z"/>
		<path fill="#FFFFFF" d="M57.2,44c-3.7,0-6.8,2.1-8.4,5.1c-2.5-1.1-5.3,0.7-5.4,3.4c-2.2,0.8-3.9,2.9-3.9,5.4c0,3,2.3,5.5,5.3,5.8
			l17.9-17.9C61.2,44.6,59.3,44,57.2,44z"/>
		<path fill="#FFEE58" d="M41.1,69.4c-4.4-4.2-6.6-10.2-6-16.2c1-11,10.8-19.1,21.7-18.1l-0.4,4l12.7-6.9l-11.2-9.1l-0.4,4
			c-15.4-1.4-29,9.9-30.4,25.3c-0.8,8.5,2.3,16.8,8.4,22.7L41.1,69.4z"/>
		<path fill="#FFEE58" d="M68.9,40.6c4.4,4.2,6.6,10.2,6,16.2c-1,11-10.8,19.1-21.7,18.1l0.4-4l-12.7,6.9l11.2,9.1l0.4-4
			c15.4,1.4,29-9.9,30.4-25.3c0.8-8.5-2.3-16.8-8.4-22.7L68.9,40.6z"/>
	</g>
</g>
<g id="Blue" display="none">
	<g display="inline">
		<g>
			<path fill="#E8EAF6" d="M70.4,57c0-2.8-1.8-5.3-4.2-6.3c-2-4.8-5.1-6.8-9-6.8c-3.7,0-6.8,2.1-8.4,5.1c-2.5-1.1-5.3,0.7-5.4,3.4
				c-2.2,0.8-3.9,2.9-3.9,5.4c0,3.2,2.6,5.8,5.8,5.8h19.3C64.7,63.8,70.4,62.7,70.4,57z"/>
		</g>
		<g>
			<path fill="#FFFFFF" d="M57.2,44c-3.7,0-6.8,2.1-8.4,5.1c-2.5-1.1-5.3,0.7-5.4,3.4c-2.2,0.8-3.9,2.9-3.9,5.4c0,3,2.3,5.5,5.3,5.8
				l17.9-17.9C61.2,44.6,59.3,44,57.2,44z"/>
		</g>
		<g>
			<path fill="#2962FF" d="M41.1,69.4c-4.4-4.2-6.6-10.2-6-16.2c1-11,10.8-19.1,21.8-18.1l-0.4,4l12.7-6.9l-11.2-9.1l-0.4,4
				c-15.4-1.4-29,9.9-30.4,25.3c-0.8,8.5,2.3,16.8,8.5,22.7L41.1,69.4z"/>
		</g>
		<g>
			<path fill="#2962FF" d="M68.9,40.6c4.4,4.2,6.6,10.2,6,16.2c-1,11-10.8,19.1-21.8,18.1l0.4-4l-12.7,6.9l11.2,9.1l0.4-4
				c15.4,1.4,29-9.9,30.4-25.3c0.8-8.5-2.3-16.8-8.5-22.7L68.9,40.6z"/>
		</g>
	</g>
</g>
<g id="R-Blue" display="none">
	<g display="inline">
		<circle fill="#00B0FF" cx="55" cy="55" r="55"/>
	</g>
	<g display="inline">
		<g>
			<path fill="#E8EAF6" d="M70.4,57c0-2.8-1.8-5.3-4.2-6.3c-2-4.8-5.1-6.8-9-6.8c-3.7,0-6.8,2.1-8.4,5.1c-2.5-1.1-5.3,0.7-5.4,3.4
				c-2.2,0.8-3.9,2.9-3.9,5.4c0,3.2,2.6,5.8,5.8,5.8h19.3C64.7,63.8,70.4,62.7,70.4,57z"/>
		</g>
		<g>
			<path fill="#FFFFFF" d="M57.2,44c-3.7,0-6.8,2.1-8.4,5.1c-2.5-1.1-5.3,0.7-5.4,3.4c-2.2,0.8-3.9,2.9-3.9,5.4c0,3,2.3,5.5,5.3,5.8
				l17.9-17.9C61.2,44.6,59.3,44,57.2,44z"/>
		</g>
		<g>
			<path fill="#2962FF" d="M41.1,69.4c-4.4-4.2-6.6-10.2-6-16.2c1-11,10.8-19.1,21.8-18.1l-0.4,4l12.7-6.9l-11.2-9.1l-0.4,4
				c-15.4-1.4-29,9.9-30.4,25.3c-0.8,8.5,2.3,16.8,8.5,22.7L41.1,69.4z"/>
		</g>
		<g>
			<path fill="#2962FF" d="M68.9,40.6c4.4,4.2,6.6,10.2,6,16.2c-1,11-10.8,19.1-21.8,18.1l0.4-4l-12.7,6.9l11.2,9.1l0.4-4
				c15.4,1.4,29-9.9,30.4-25.3c0.8-8.5-2.3-16.8-8.5-22.7L68.9,40.6z"/>
		</g>
	</g>
</g>
<g id="Green" display="none">
	<g display="inline">
		<g>
			<path fill="#ECF5E1" d="M70.4,57c0-2.8-1.8-5.3-4.2-6.3c-2-4.8-5.1-6.8-9-6.8c-3.7,0-6.8,2.1-8.4,5.1c-2.5-1.1-5.3,0.7-5.4,3.4
				c-2.2,0.8-3.9,2.9-3.9,5.4c0,3.2,2.6,5.8,5.8,5.8h19.3C64.7,63.8,70.4,62.7,70.4,57z"/>
		</g>
		<g>
			<path fill="#FFFFFF" d="M57.2,44c-3.7,0-6.8,2.1-8.4,5.1c-2.5-1.1-5.3,0.7-5.4,3.4c-2.2,0.8-3.9,2.9-3.9,5.4c0,3,2.3,5.5,5.3,5.8
				l17.9-17.9C61.2,44.6,59.3,44,57.2,44z"/>
		</g>
		<g>
			<path fill="#00A344" d="M41.1,69.4c-4.4-4.2-6.6-10.2-6-16.2c1-11,10.8-19.1,21.8-18.1l-0.4,4l12.7-6.9l-11.2-9.1l-0.4,4
				c-15.4-1.4-29,9.9-30.4,25.3c-0.8,8.5,2.3,16.8,8.5,22.7L41.1,69.4z"/>
		</g>
		<g>
			<path fill="#00A344" d="M68.9,40.6c4.4,4.2,6.6,10.2,6,16.2c-1,11-10.8,19.1-21.8,18.1l0.4-4l-12.7,6.9l11.2,9.1l0.4-4
				c15.4,1.4,29-9.9,30.4-25.3c0.8-8.5-2.3-16.8-8.5-22.7L68.9,40.6z"/>
		</g>
	</g>
</g>
<g id="R-Green" display="none">
	<g display="inline">
		<circle fill="#64DD17" cx="55" cy="55" r="55"/>
	</g>
	<g display="inline">
		<g>
			<path fill="#ECF5E1" d="M70.4,57c0-2.8-1.8-5.3-4.2-6.3c-2-4.8-5.1-6.8-9-6.8c-3.7,0-6.8,2.1-8.4,5.1c-2.5-1.1-5.3,0.7-5.4,3.4
				c-2.2,0.8-3.9,2.9-3.9,5.4c0,3.2,2.6,5.8,5.8,5.8h19.3C64.7,63.8,70.4,62.7,70.4,57z"/>
		</g>
		<g>
			<path fill="#FFFFFF" d="M57.2,44c-3.7,0-6.8,2.1-8.4,5.1c-2.5-1.1-5.3,0.7-5.4,3.4c-2.2,0.8-3.9,2.9-3.9,5.4c0,3,2.3,5.5,5.3,5.8
				l17.9-17.9C61.2,44.6,59.3,44,57.2,44z"/>
		</g>
		<g>
			<path fill="#00A344" d="M41.1,69.4c-4.4-4.2-6.6-10.2-6-16.2c1-11,10.8-19.1,21.8-18.1l-0.4,4l12.7-6.9l-11.2-9.1l-0.4,4
				c-15.4-1.4-29,9.9-30.4,25.3c-0.8,8.5,2.3,16.8,8.5,22.7L41.1,69.4z"/>
		</g>
		<g>
			<path fill="#00A344" d="M68.9,40.6c4.4,4.2,6.6,10.2,6,16.2c-1,11-10.8,19.1-21.8,18.1l0.4-4l-12.7,6.9l11.2,9.1l0.4-4
				c15.4,1.4,29-9.9,30.4-25.3c0.8-8.5-2.3-16.8-8.5-22.7L68.9,40.6z"/>
		</g>
	</g>
</g>
<g id="Red" display="none">
	<g display="inline">
		<g>
			<path fill="#FFE4DE" d="M70.4,57c0-2.8-1.8-5.3-4.2-6.3c-2-4.8-5.1-6.8-9-6.8c-3.7,0-6.8,2.1-8.4,5.1c-2.5-1.1-5.3,0.7-5.4,3.4
				c-2.2,0.8-3.9,2.9-3.9,5.4c0,3.2,2.6,5.8,5.8,5.8h19.3C64.7,63.8,70.4,62.7,70.4,57z"/>
		</g>
		<g>
			<path fill="#FFFFFF" d="M57.2,44c-3.7,0-6.8,2.1-8.4,5.1c-2.5-1.1-5.3,0.7-5.4,3.4c-2.2,0.8-3.9,2.9-3.9,5.4c0,3,2.3,5.5,5.3,5.8
				l17.9-17.9C61.2,44.6,59.3,44,57.2,44z"/>
		</g>
		<g>
			<path fill="#AC2200" d="M41.1,69.4c-4.4-4.2-6.6-10.2-6-16.2c1-11,10.8-19.1,21.8-18.1l-0.4,4l12.7-6.9l-11.2-9.1l-0.4,4
				c-15.4-1.4-29,9.9-30.4,25.3c-0.8,8.5,2.3,16.8,8.5,22.7L41.1,69.4z"/>
		</g>
		<g>
			<path fill="#AC2200" d="M68.9,40.6c4.4,4.2,6.6,10.2,6,16.2c-1,11-10.8,19.1-21.8,18.1l0.4-4l-12.7,6.9l11.2,9.1l0.4-4
				c15.4,1.4,29-9.9,30.4-25.3c0.8-8.5-2.3-16.8-8.5-22.7L68.9,40.6z"/>
		</g>
	</g>
</g>
<g id="R-Red" display="none">
	<g display="inline">
		<circle fill="#FF5722" cx="55" cy="55" r="55"/>
	</g>
	<g display="inline">
		<g>
			<path fill="#FFE4DE" d="M70.4,57c0-2.8-1.8-5.3-4.2-6.3c-2-4.8-5.1-6.8-9-6.8c-3.7,0-6.8,2.1-8.4,5.1c-2.5-1.1-5.3,0.7-5.4,3.4
				c-2.2,0.8-3.9,2.9-3.9,5.4c0,3.2,2.6,5.8,5.8,5.8h19.3C64.7,63.8,70.4,62.7,70.4,57z"/>
		</g>
		<g>
			<path fill="#FFFFFF" d="M57.2,44c-3.7,0-6.8,2.1-8.4,5.1c-2.5-1.1-5.3,0.7-5.4,3.4c-2.2,0.8-3.9,2.9-3.9,5.4c0,3,2.3,5.5,5.3,5.8
				l17.9-17.9C61.2,44.6,59.3,44,57.2,44z"/>
		</g>
		<g>
			<path fill="#AC2200" d="M41.1,69.4c-4.4-4.2-6.6-10.2-6-16.2c1-11,10.8-19.1,21.8-18.1l-0.4,4l12.7-6.9l-11.2-9.1l-0.4,4
				c-15.4-1.4-29,9.9-30.4,25.3c-0.8,8.5,2.3,16.8,8.5,22.7L41.1,69.4z"/>
		</g>
		<g>
			<path fill="#AC2200" d="M68.9,40.6c4.4,4.2,6.6,10.2,6,16.2c-1,11-10.8,19.1-21.8,18.1l0.4-4l-12.7,6.9l11.2,9.1l0.4-4
				c15.4,1.4,29-9.9,30.4-25.3c0.8-8.5-2.3-16.8-8.5-22.7L68.9,40.6z"/>
		</g>
	</g>
</g>
<g id="Yellow" display="none">
	<g display="inline">
		<g>
			<path fill="#FFF4D1" d="M70.4,57c0-2.8-1.8-5.3-4.2-6.3c-2-4.8-5.1-6.8-9-6.8c-3.7,0-6.8,2.1-8.4,5.1c-2.5-1.1-5.3,0.7-5.4,3.4
				c-2.2,0.8-3.9,2.9-3.9,5.4c0,3.2,2.6,5.8,5.8,5.8h19.3C64.7,63.8,70.4,62.7,70.4,57z"/>
		</g>
		<g>
			<path fill="#FFFFFF" d="M57.2,44c-3.7,0-6.8,2.1-8.4,5.1c-2.5-1.1-5.3,0.7-5.4,3.4c-2.2,0.8-3.9,2.9-3.9,5.4c0,3,2.3,5.5,5.3,5.8
				l17.9-17.9C61.2,44.6,59.3,44,57.2,44z"/>
		</g>
		<g>
			<path fill="#FC6100" d="M41.1,69.4c-4.4-4.2-6.6-10.2-6-16.2c1-11,10.8-19.1,21.8-18.1l-0.4,4l12.7-6.9l-11.2-9.1l-0.4,4
				c-15.4-1.4-29,9.9-30.4,25.3c-0.8,8.5,2.3,16.8,8.5,22.7L41.1,69.4z"/>
		</g>
		<g>
			<path fill="#FC6100" d="M68.9,40.6c4.4,4.2,6.6,10.2,6,16.2c-1,11-10.8,19.1-21.8,18.1l0.4-4l-12.7,6.9l11.2,9.1l0.4-4
				c15.4,1.4,29-9.9,30.4-25.3c0.8-8.5-2.3-16.8-8.5-22.7L68.9,40.6z"/>
		</g>
	</g>
</g>
<g id="R-Yellow" display="none">
	<g display="inline">
		<circle fill="#FFD600" cx="55" cy="55" r="55"/>
	</g>
	<g display="inline">
		<g>
			<path fill="#FFF4D1" d="M70.4,57c0-2.8-1.8-5.3-4.2-6.3c-2-4.8-5.1-6.8-9-6.8c-3.7,0-6.8,2.1-8.4,5.1c-2.5-1.1-5.3,0.7-5.4,3.4
				c-2.2,0.8-3.9,2.9-3.9,5.4c0,3.2,2.6,5.8,5.8,5.8h19.3C64.7,63.8,70.4,62.7,70.4,57z"/>
		</g>
		<g>
			<path fill="#FFFFFF" d="M57.2,44c-3.7,0-6.8,2.1-8.4,5.1c-2.5-1.1-5.3,0.7-5.4,3.4c-2.2,0.8-3.9,2.9-3.9,5.4c0,3,2.3,5.5,5.3,5.8
				l17.9-17.9C61.2,44.6,59.3,44,57.2,44z"/>
		</g>
		<g>
			<path fill="#FC6100" d="M41.1,69.4c-4.4-4.2-6.6-10.2-6-16.2c1-11,10.8-19.1,21.8-18.1l-0.4,4l12.7-6.9l-11.2-9.1l-0.4,4
				c-15.4-1.4-29,9.9-30.4,25.3c-0.8,8.5,2.3,16.8,8.5,22.7L41.1,69.4z"/>
		</g>
		<g>
			<path fill="#FC6100" d="M68.9,40.6c4.4,4.2,6.6,10.2,6,16.2c-1,11-10.8,19.1-21.8,18.1l0.4-4l-12.7,6.9l11.2,9.1l0.4-4
				c15.4,1.4,29-9.9,30.4-25.3c0.8-8.5-2.3-16.8-8.5-22.7L68.9,40.6z"/>
		</g>
	</g>
</g>
</svg>
